<svg width="449" height="133" viewBox="0 0 449 133" fill="none" xmlns="http://www.w3.org/2000/svg">
<g filter="url(#filter0_d_64_7)">
<path d="M13 120.508L52.6979 61.3153L13 1H448L409.979 61.3153L448 120.508H13Z" fill="#EBFF00" stroke="#EBFF00"/>
<mask id="path-2-outside-1_64_7" maskUnits="userSpaceOnUse" x="89" y="46.1462" width="257" height="32" fill="black">
<rect fill="white" x="89" y="46.1462" width="257" height="32"/>
<path d="M100.253 48.4462C102.981 48.4462 105.223 49.0042 106.98 50.1202C108.737 51.2156 109.636 52.8482 109.677 55.0182V55.3902H103.26V55.2662C103.26 54.6462 103.033 54.1296 102.578 53.7162C102.123 53.3029 101.431 53.0962 100.501 53.0962C99.5917 53.0962 98.889 53.2306 98.393 53.4992C97.9177 53.7679 97.68 54.0986 97.68 54.4912C97.68 55.0492 98.0107 55.4626 98.672 55.7312C99.3333 55.9999 100.398 56.2789 101.865 56.5682C103.58 56.9196 104.986 57.2916 106.081 57.6842C107.197 58.0562 108.168 58.6762 108.995 59.5442C109.822 60.4122 110.245 61.5902 110.266 63.0782C110.266 65.5996 109.408 67.4699 107.693 68.6892C105.998 69.9086 103.725 70.5182 100.873 70.5182C97.5457 70.5182 94.952 69.9602 93.092 68.8442C91.2527 67.7282 90.333 65.7546 90.333 62.9232H96.812C96.812 63.9979 97.091 64.7212 97.649 65.0932C98.207 65.4446 99.075 65.6202 100.253 65.6202C101.121 65.6202 101.834 65.5272 102.392 65.3412C102.971 65.1552 103.26 64.7729 103.26 64.1942C103.26 63.6776 102.94 63.2952 102.299 63.0472C101.679 62.7786 100.656 62.4996 99.23 62.2102C97.494 61.8382 96.0577 61.4559 94.921 61.0632C93.7843 60.6499 92.7923 59.9782 91.945 59.0482C91.0977 58.1182 90.674 56.8576 90.674 55.2662C90.674 52.9309 91.573 51.2156 93.371 50.1202C95.1897 49.0042 97.4837 48.4462 100.253 48.4462ZM124.144 53.7782V57.9632H120.672V64.1942C120.672 64.9382 120.796 65.4859 121.044 65.8372C121.292 66.1679 121.747 66.3332 122.408 66.3332H124.144V69.9602C123.648 70.1256 123.007 70.2599 122.222 70.3632C121.437 70.4666 120.755 70.5182 120.176 70.5182C118.357 70.5182 116.952 70.1876 115.96 69.5262C114.989 68.8649 114.503 67.7386 114.503 66.1472V57.9632H112.209V53.7782H114.751L116.084 48.8182H120.672V53.7782H124.144ZM136.957 53.3752C137.433 53.3752 137.856 53.4372 138.228 53.5612C138.6 53.6646 138.786 53.7266 138.786 53.7472V58.9242H136.802C135.521 58.9242 134.591 59.2549 134.012 59.9162C133.454 60.5776 133.175 61.5592 133.175 62.8612V70.1462H127.006V53.7782H132.059L132.462 56.2582C132.834 55.3076 133.423 54.5946 134.229 54.1192C135.035 53.6232 135.945 53.3752 136.957 53.3752ZM149.387 53.4062C151.887 53.4062 153.923 53.8299 155.494 54.6772C157.064 55.5039 157.85 56.8576 157.85 58.7382V65.1242C157.85 65.4756 157.932 65.7649 158.098 65.9922C158.263 66.2196 158.511 66.3332 158.842 66.3332H159.958V69.8982C159.896 69.9396 159.73 70.0119 159.462 70.1152C159.214 70.1979 158.852 70.2806 158.377 70.3632C157.901 70.4666 157.354 70.5182 156.734 70.5182C155.535 70.5182 154.543 70.3426 153.758 69.9912C152.993 69.6192 152.466 69.1129 152.177 68.4722C151.391 69.0922 150.513 69.5882 149.542 69.9602C148.57 70.3322 147.434 70.5182 146.132 70.5182C142.288 70.5182 140.366 68.9889 140.366 65.9302C140.366 64.3389 140.789 63.1299 141.637 62.3032C142.505 61.4559 143.745 60.8772 145.357 60.5672C146.969 60.2572 149.077 60.1022 151.681 60.1022V59.2962C151.681 58.6556 151.453 58.1699 150.999 57.8392C150.565 57.5086 149.996 57.3432 149.294 57.3432C148.653 57.3432 148.095 57.4569 147.62 57.6842C147.165 57.9116 146.938 58.2732 146.938 58.7692V58.8932H140.862C140.841 58.7899 140.831 58.6452 140.831 58.4592C140.831 56.9092 141.564 55.6796 143.032 54.7702C144.52 53.8609 146.638 53.4062 149.387 53.4062ZM151.681 63.0162C149.924 63.0162 148.622 63.2126 147.775 63.6052C146.948 63.9772 146.535 64.4836 146.535 65.1242C146.535 66.1576 147.237 66.6742 148.643 66.6742C149.449 66.6742 150.151 66.4572 150.751 66.0232C151.371 65.5892 151.681 65.0519 151.681 64.4112V63.0162ZM177.348 70.1462L174.806 61.0322H174.682L172.109 70.1462H166.095L160.112 53.7782H166.746L169.226 63.4502H169.443L172.016 53.7782H178.154L180.634 63.4502H180.851L183.362 53.7782H189.376L183.362 70.1462H177.348ZM197.447 55.2972C198.625 54.0366 200.154 53.4062 202.035 53.4062C204.246 53.4062 205.951 54.1296 207.15 55.5762C208.348 57.0022 208.948 59.1206 208.948 61.9312C208.948 64.7626 208.348 66.9016 207.15 68.3482C205.951 69.7949 204.246 70.5182 202.035 70.5182C199.761 70.5182 198.025 69.6192 196.827 67.8212L196.3 70.1462H191.278V47.6712H197.447V55.2972ZM200.113 57.9632C199.203 57.9632 198.521 58.2939 198.067 58.9552C197.612 59.5959 197.385 60.4329 197.385 61.4662V62.4892C197.385 63.5226 197.612 64.3596 198.067 65.0002C198.521 65.6409 199.203 65.9612 200.113 65.9612C201.89 65.9612 202.779 64.9072 202.779 62.7992V61.1562C202.779 59.0276 201.89 57.9632 200.113 57.9632ZM220.386 53.4062C223.383 53.4062 225.667 54.1089 227.237 55.5142C228.829 56.9196 229.624 59.0689 229.624 61.9622V63.0162H217.348C217.348 64.1942 217.607 65.0829 218.123 65.6822C218.661 66.2816 219.498 66.5812 220.634 66.5812C221.668 66.5812 222.422 66.3642 222.897 65.9302C223.393 65.4962 223.641 64.9176 223.641 64.1942H229.624C229.624 66.1782 228.87 67.7282 227.361 68.8442C225.853 69.9602 223.652 70.5182 220.758 70.5182C217.72 70.5182 215.364 69.8156 213.69 68.4102C212.016 66.9842 211.179 64.8349 211.179 61.9622C211.179 59.1516 211.996 57.0229 213.628 55.5762C215.261 54.1296 217.514 53.4062 220.386 53.4062ZM220.634 57.3432C218.692 57.3432 217.607 58.2629 217.379 60.1022H223.393C223.393 59.2549 223.145 58.5832 222.649 58.0872C222.174 57.5912 221.502 57.3432 220.634 57.3432ZM242.551 53.3752C243.027 53.3752 243.45 53.4372 243.822 53.5612C244.194 53.6646 244.38 53.7266 244.38 53.7472V58.9242H242.396C241.115 58.9242 240.185 59.2549 239.606 59.9162C239.048 60.5776 238.769 61.5592 238.769 62.8612V70.1462H232.6V53.7782H237.653L238.056 56.2582C238.428 55.3076 239.017 54.5946 239.823 54.1192C240.629 53.6232 241.539 53.3752 242.551 53.3752ZM257.627 53.3752C258.103 53.3752 258.526 53.4372 258.898 53.5612C259.27 53.6646 259.456 53.7266 259.456 53.7472V58.9242H257.472C256.191 58.9242 255.261 59.2549 254.682 59.9162C254.124 60.5776 253.845 61.5592 253.845 62.8612V70.1462H247.676V53.7782H252.729L253.132 56.2582C253.504 55.3076 254.093 54.5946 254.899 54.1192C255.705 53.6232 256.615 53.3752 257.627 53.3752ZM274.49 69.6502C273.643 71.9442 272.599 73.6802 271.359 74.8582C270.14 76.0569 268.424 76.6562 266.213 76.6562C264.87 76.6562 263.681 76.4702 262.648 76.0982V72.4092H265.128C266.678 72.4092 267.598 71.6549 267.887 70.1462L261.377 53.7782H268.011L271.142 64.6592H271.359L274.242 53.7782H280.318L274.49 69.6502ZM296.913 70.1462L296.014 67.1392H288.543L287.644 70.1462H280.638L288.419 48.8182H296.386L304.167 70.1462H296.913ZM289.969 62.3652H294.588L292.356 54.7702H292.232L289.969 62.3652ZM324.978 70.1462H317.786L314.686 65.0002H314.562L311.431 70.1462H304.58L310.873 61.4662L305.2 53.7782H312.454L315.058 58.1182H315.182L317.786 53.7782H324.606L318.84 61.6212L324.978 70.1462ZM334.941 53.4062C337.938 53.4062 340.221 54.1089 341.792 55.5142C343.383 56.9196 344.179 59.0689 344.179 61.9622V63.0162H331.903C331.903 64.1942 332.161 65.0829 332.678 65.6822C333.215 66.2816 334.052 66.5812 335.189 66.5812C336.222 66.5812 336.977 66.3642 337.452 65.9302C337.948 65.4962 338.196 64.9176 338.196 64.1942H344.179C344.179 66.1782 343.425 67.7282 341.916 68.8442C340.407 69.9602 338.206 70.5182 335.313 70.5182C332.275 70.5182 329.919 69.8156 328.245 68.4102C326.571 66.9842 325.734 64.8349 325.734 61.9622C325.734 59.1516 326.55 57.0229 328.183 55.5762C329.816 54.1296 332.068 53.4062 334.941 53.4062ZM335.189 57.3432C333.246 57.3432 332.161 58.2629 331.934 60.1022H337.948C337.948 59.2549 337.7 58.5832 337.204 58.0872C336.729 57.5912 336.057 57.3432 335.189 57.3432Z"/>
</mask>
<path d="M100.253 48.4462C102.981 48.4462 105.223 49.0042 106.98 50.1202C108.737 51.2156 109.636 52.8482 109.677 55.0182V55.3902H103.26V55.2662C103.26 54.6462 103.033 54.1296 102.578 53.7162C102.123 53.3029 101.431 53.0962 100.501 53.0962C99.5917 53.0962 98.889 53.2306 98.393 53.4992C97.9177 53.7679 97.68 54.0986 97.68 54.4912C97.68 55.0492 98.0107 55.4626 98.672 55.7312C99.3333 55.9999 100.398 56.2789 101.865 56.5682C103.58 56.9196 104.986 57.2916 106.081 57.6842C107.197 58.0562 108.168 58.6762 108.995 59.5442C109.822 60.4122 110.245 61.5902 110.266 63.0782C110.266 65.5996 109.408 67.4699 107.693 68.6892C105.998 69.9086 103.725 70.5182 100.873 70.5182C97.5457 70.5182 94.952 69.9602 93.092 68.8442C91.2527 67.7282 90.333 65.7546 90.333 62.9232H96.812C96.812 63.9979 97.091 64.7212 97.649 65.0932C98.207 65.4446 99.075 65.6202 100.253 65.6202C101.121 65.6202 101.834 65.5272 102.392 65.3412C102.971 65.1552 103.26 64.7729 103.26 64.1942C103.26 63.6776 102.94 63.2952 102.299 63.0472C101.679 62.7786 100.656 62.4996 99.23 62.2102C97.494 61.8382 96.0577 61.4559 94.921 61.0632C93.7843 60.6499 92.7923 59.9782 91.945 59.0482C91.0977 58.1182 90.674 56.8576 90.674 55.2662C90.674 52.9309 91.573 51.2156 93.371 50.1202C95.1897 49.0042 97.4837 48.4462 100.253 48.4462ZM124.144 53.7782V57.9632H120.672V64.1942C120.672 64.9382 120.796 65.4859 121.044 65.8372C121.292 66.1679 121.747 66.3332 122.408 66.3332H124.144V69.9602C123.648 70.1256 123.007 70.2599 122.222 70.3632C121.437 70.4666 120.755 70.5182 120.176 70.5182C118.357 70.5182 116.952 70.1876 115.96 69.5262C114.989 68.8649 114.503 67.7386 114.503 66.1472V57.9632H112.209V53.7782H114.751L116.084 48.8182H120.672V53.7782H124.144ZM136.957 53.3752C137.433 53.3752 137.856 53.4372 138.228 53.5612C138.6 53.6646 138.786 53.7266 138.786 53.7472V58.9242H136.802C135.521 58.9242 134.591 59.2549 134.012 59.9162C133.454 60.5776 133.175 61.5592 133.175 62.8612V70.1462H127.006V53.7782H132.059L132.462 56.2582C132.834 55.3076 133.423 54.5946 134.229 54.1192C135.035 53.6232 135.945 53.3752 136.957 53.3752ZM149.387 53.4062C151.887 53.4062 153.923 53.8299 155.494 54.6772C157.064 55.5039 157.85 56.8576 157.85 58.7382V65.1242C157.85 65.4756 157.932 65.7649 158.098 65.9922C158.263 66.2196 158.511 66.3332 158.842 66.3332H159.958V69.8982C159.896 69.9396 159.73 70.0119 159.462 70.1152C159.214 70.1979 158.852 70.2806 158.377 70.3632C157.901 70.4666 157.354 70.5182 156.734 70.5182C155.535 70.5182 154.543 70.3426 153.758 69.9912C152.993 69.6192 152.466 69.1129 152.177 68.4722C151.391 69.0922 150.513 69.5882 149.542 69.9602C148.57 70.3322 147.434 70.5182 146.132 70.5182C142.288 70.5182 140.366 68.9889 140.366 65.9302C140.366 64.3389 140.789 63.1299 141.637 62.3032C142.505 61.4559 143.745 60.8772 145.357 60.5672C146.969 60.2572 149.077 60.1022 151.681 60.1022V59.2962C151.681 58.6556 151.453 58.1699 150.999 57.8392C150.565 57.5086 149.996 57.3432 149.294 57.3432C148.653 57.3432 148.095 57.4569 147.62 57.6842C147.165 57.9116 146.938 58.2732 146.938 58.7692V58.8932H140.862C140.841 58.7899 140.831 58.6452 140.831 58.4592C140.831 56.9092 141.564 55.6796 143.032 54.7702C144.52 53.8609 146.638 53.4062 149.387 53.4062ZM151.681 63.0162C149.924 63.0162 148.622 63.2126 147.775 63.6052C146.948 63.9772 146.535 64.4836 146.535 65.1242C146.535 66.1576 147.237 66.6742 148.643 66.6742C149.449 66.6742 150.151 66.4572 150.751 66.0232C151.371 65.5892 151.681 65.0519 151.681 64.4112V63.0162ZM177.348 70.1462L174.806 61.0322H174.682L172.109 70.1462H166.095L160.112 53.7782H166.746L169.226 63.4502H169.443L172.016 53.7782H178.154L180.634 63.4502H180.851L183.362 53.7782H189.376L183.362 70.1462H177.348ZM197.447 55.2972C198.625 54.0366 200.154 53.4062 202.035 53.4062C204.246 53.4062 205.951 54.1296 207.15 55.5762C208.348 57.0022 208.948 59.1206 208.948 61.9312C208.948 64.7626 208.348 66.9016 207.15 68.3482C205.951 69.7949 204.246 70.5182 202.035 70.5182C199.761 70.5182 198.025 69.6192 196.827 67.8212L196.3 70.1462H191.278V47.6712H197.447V55.2972ZM200.113 57.9632C199.203 57.9632 198.521 58.2939 198.067 58.9552C197.612 59.5959 197.385 60.4329 197.385 61.4662V62.4892C197.385 63.5226 197.612 64.3596 198.067 65.0002C198.521 65.6409 199.203 65.9612 200.113 65.9612C201.89 65.9612 202.779 64.9072 202.779 62.7992V61.1562C202.779 59.0276 201.89 57.9632 200.113 57.9632ZM220.386 53.4062C223.383 53.4062 225.667 54.1089 227.237 55.5142C228.829 56.9196 229.624 59.0689 229.624 61.9622V63.0162H217.348C217.348 64.1942 217.607 65.0829 218.123 65.6822C218.661 66.2816 219.498 66.5812 220.634 66.5812C221.668 66.5812 222.422 66.3642 222.897 65.9302C223.393 65.4962 223.641 64.9176 223.641 64.1942H229.624C229.624 66.1782 228.87 67.7282 227.361 68.8442C225.853 69.9602 223.652 70.5182 220.758 70.5182C217.72 70.5182 215.364 69.8156 213.69 68.4102C212.016 66.9842 211.179 64.8349 211.179 61.9622C211.179 59.1516 211.996 57.0229 213.628 55.5762C215.261 54.1296 217.514 53.4062 220.386 53.4062ZM220.634 57.3432C218.692 57.3432 217.607 58.2629 217.379 60.1022H223.393C223.393 59.2549 223.145 58.5832 222.649 58.0872C222.174 57.5912 221.502 57.3432 220.634 57.3432ZM242.551 53.3752C243.027 53.3752 243.45 53.4372 243.822 53.5612C244.194 53.6646 244.38 53.7266 244.38 53.7472V58.9242H242.396C241.115 58.9242 240.185 59.2549 239.606 59.9162C239.048 60.5776 238.769 61.5592 238.769 62.8612V70.1462H232.6V53.7782H237.653L238.056 56.2582C238.428 55.3076 239.017 54.5946 239.823 54.1192C240.629 53.6232 241.539 53.3752 242.551 53.3752ZM257.627 53.3752C258.103 53.3752 258.526 53.4372 258.898 53.5612C259.27 53.6646 259.456 53.7266 259.456 53.7472V58.9242H257.472C256.191 58.9242 255.261 59.2549 254.682 59.9162C254.124 60.5776 253.845 61.5592 253.845 62.8612V70.1462H247.676V53.7782H252.729L253.132 56.2582C253.504 55.3076 254.093 54.5946 254.899 54.1192C255.705 53.6232 256.615 53.3752 257.627 53.3752ZM274.49 69.6502C273.643 71.9442 272.599 73.6802 271.359 74.8582C270.14 76.0569 268.424 76.6562 266.213 76.6562C264.87 76.6562 263.681 76.4702 262.648 76.0982V72.4092H265.128C266.678 72.4092 267.598 71.6549 267.887 70.1462L261.377 53.7782H268.011L271.142 64.6592H271.359L274.242 53.7782H280.318L274.49 69.6502ZM296.913 70.1462L296.014 67.1392H288.543L287.644 70.1462H280.638L288.419 48.8182H296.386L304.167 70.1462H296.913ZM289.969 62.3652H294.588L292.356 54.7702H292.232L289.969 62.3652ZM324.978 70.1462H317.786L314.686 65.0002H314.562L311.431 70.1462H304.58L310.873 61.4662L305.2 53.7782H312.454L315.058 58.1182H315.182L317.786 53.7782H324.606L318.84 61.6212L324.978 70.1462ZM334.941 53.4062C337.938 53.4062 340.221 54.1089 341.792 55.5142C343.383 56.9196 344.179 59.0689 344.179 61.9622V63.0162H331.903C331.903 64.1942 332.161 65.0829 332.678 65.6822C333.215 66.2816 334.052 66.5812 335.189 66.5812C336.222 66.5812 336.977 66.3642 337.452 65.9302C337.948 65.4962 338.196 64.9176 338.196 64.1942H344.179C344.179 66.1782 343.425 67.7282 341.916 68.8442C340.407 69.9602 338.206 70.5182 335.313 70.5182C332.275 70.5182 329.919 69.8156 328.245 68.4102C326.571 66.9842 325.734 64.8349 325.734 61.9622C325.734 59.1516 326.55 57.0229 328.183 55.5762C329.816 54.1296 332.068 53.4062 334.941 53.4062ZM335.189 57.3432C333.246 57.3432 332.161 58.2629 331.934 60.1022H337.948C337.948 59.2549 337.7 58.5832 337.204 58.0872C336.729 57.5912 336.057 57.3432 335.189 57.3432Z" fill="#2B2B2B"/>
<path d="M106.98 50.1202L106.444 50.9643L106.451 50.9688L106.98 50.1202ZM109.677 55.0182H110.677V55.0087L110.677 54.9992L109.677 55.0182ZM109.677 55.3902V56.3902H110.677V55.3902H109.677ZM103.26 55.3902H102.26V56.3902H103.26V55.3902ZM102.578 53.7162L103.251 52.9763V52.9763L102.578 53.7162ZM98.393 53.4992L97.9167 52.6199L97.9088 52.6242L97.9009 52.6287L98.393 53.4992ZM98.672 55.7312L99.0484 54.8048L98.672 55.7312ZM101.865 56.5682L102.066 55.5886L102.058 55.5871L101.865 56.5682ZM106.081 57.6842L105.744 58.6256L105.754 58.6294L105.765 58.6329L106.081 57.6842ZM110.266 63.0782H111.266L111.266 63.0644L110.266 63.0782ZM107.693 68.6892L107.114 67.8742L107.109 67.8775L107.693 68.6892ZM93.092 68.8442L92.5733 69.6992L92.5775 69.7017L93.092 68.8442ZM90.333 62.9232V61.9232H89.333V62.9232H90.333ZM96.812 62.9232H97.812V61.9232H96.812V62.9232ZM97.649 65.0932L97.0943 65.9253L97.1052 65.9325L97.1162 65.9395L97.649 65.0932ZM102.392 65.3412L102.086 64.3892L102.076 64.3926L102.392 65.3412ZM102.299 63.0472L101.901 63.9648L101.92 63.9727L101.938 63.9798L102.299 63.0472ZM99.23 62.2102L99.0205 63.1881L99.0312 63.1903L99.23 62.2102ZM94.921 61.0632L94.5793 62.003L94.5868 62.0058L94.5945 62.0084L94.921 61.0632ZM91.945 59.0482L91.2058 59.7217L91.945 59.0482ZM93.371 50.1202L93.8913 50.9743L93.894 50.9726L93.371 50.1202ZM100.253 49.4462C102.849 49.4462 104.89 49.9773 106.444 50.9643L107.516 49.2762C105.557 48.0312 103.113 47.4462 100.253 47.4462V49.4462ZM106.451 50.9688C107.904 51.8749 108.642 53.1859 108.677 55.0373L110.677 54.9992C110.629 52.5105 109.569 50.5562 107.509 49.2717L106.451 50.9688ZM108.677 55.0182V55.3902H110.677V55.0182H108.677ZM109.677 54.3902H103.26V56.3902H109.677V54.3902ZM104.26 55.3902V55.2662H102.26V55.3902H104.26ZM104.26 55.2662C104.26 54.3674 103.916 53.5811 103.251 52.9763L101.905 54.4562C102.149 54.678 102.26 54.9251 102.26 55.2662H104.26ZM103.251 52.9763C102.537 52.3276 101.556 52.0962 100.501 52.0962V54.0962C101.306 54.0962 101.71 54.2782 101.905 54.4562L103.251 52.9763ZM100.501 52.0962C99.5164 52.0962 98.6223 52.2378 97.9167 52.6199L98.8693 54.3785C99.1557 54.2234 99.6669 54.0962 100.501 54.0962V52.0962ZM97.9009 52.6287C97.2496 52.9968 96.68 53.6035 96.68 54.4912H98.68C98.68 54.4957 98.679 54.507 98.6746 54.5205C98.6703 54.5336 98.6663 54.5379 98.6703 54.5324C98.6808 54.5177 98.7328 54.4559 98.8851 54.3698L97.9009 52.6287ZM96.68 54.4912C96.68 54.9841 96.8319 55.4504 97.1471 55.8444C97.4501 56.2231 97.8596 56.4806 98.2956 56.6577L99.0484 54.8048C98.8231 54.7133 98.7366 54.6297 98.7089 54.595C98.6962 54.5792 98.6915 54.5686 98.6887 54.5604C98.6856 54.5514 98.68 54.5307 98.68 54.4912H96.68ZM98.2956 56.6577C99.0507 56.9644 100.194 57.258 101.672 57.5493L102.058 55.5871C100.601 55.2998 99.616 55.0354 99.0484 54.8048L98.2956 56.6577ZM101.664 57.5479C103.354 57.894 104.709 58.2547 105.744 58.6256L106.418 56.7429C105.262 56.3284 103.807 55.9452 102.066 55.5886L101.664 57.5479ZM105.765 58.6329C106.723 58.9522 107.555 59.4819 108.271 60.2339L109.719 58.8546C108.782 57.8705 107.671 57.1603 106.397 56.7356L105.765 58.6329ZM108.271 60.2339C108.884 60.878 109.248 61.7924 109.266 63.0921L111.266 63.0644C111.243 61.3881 110.759 59.9465 109.719 58.8546L108.271 60.2339ZM109.266 63.0782C109.266 65.3486 108.511 66.881 107.114 67.8742L108.272 69.5043C110.306 68.0588 111.266 65.8505 111.266 63.0782H109.266ZM107.109 67.8775C105.637 68.9368 103.591 69.5182 100.873 69.5182V71.5182C103.859 71.5182 106.36 70.8803 108.277 69.501L107.109 67.8775ZM100.873 69.5182C97.6378 69.5182 95.2492 68.9724 93.6065 67.9867L92.5775 69.7017C94.6548 70.9481 97.4535 71.5182 100.873 71.5182V69.5182ZM93.6107 67.9893C92.1636 67.1112 91.333 65.5302 91.333 62.9232H89.333C89.333 65.9789 90.3418 68.3452 92.5733 69.6992L93.6107 67.9893ZM90.333 63.9232H96.812V61.9232H90.333V63.9232ZM95.812 62.9232C95.812 64.1249 96.1212 65.2766 97.0943 65.9253L98.2037 64.2612C98.0608 64.1659 97.812 63.8709 97.812 62.9232H95.812ZM97.1162 65.9395C97.9157 66.4428 99.015 66.6202 100.253 66.6202V64.6202C99.135 64.6202 98.4983 64.4463 98.1818 64.247L97.1162 65.9395ZM100.253 66.6202C101.182 66.6202 102.012 66.5219 102.708 66.2899L102.076 64.3926C101.656 64.5325 101.06 64.6202 100.253 64.6202V66.6202ZM102.698 66.2933C103.131 66.1542 103.542 65.9126 103.84 65.5184C104.142 65.1199 104.26 64.6551 104.26 64.1942H102.26C102.26 64.2559 102.252 64.2896 102.248 64.3031C102.245 64.3149 102.243 64.315 102.246 64.3115C102.255 64.2997 102.232 64.3422 102.086 64.3892L102.698 66.2933ZM104.26 64.1942C104.26 63.7102 104.103 63.2559 103.786 62.8778C103.484 62.5174 103.081 62.2777 102.66 62.1147L101.938 63.9798C102.157 64.0647 102.235 64.1402 102.253 64.1622C102.261 64.171 102.26 64.172 102.258 64.1676C102.257 64.1636 102.26 64.17 102.26 64.1942H104.26ZM102.697 62.1297C101.974 61.8167 100.864 61.5213 99.4288 61.2302L99.0312 63.1903C100.448 63.4778 101.384 63.7405 101.901 63.9648L102.697 62.1297ZM99.4395 61.2324C97.7264 60.8653 96.3325 60.4929 95.2475 60.118L94.5945 62.0084C95.7828 62.4189 97.2616 62.8111 99.0205 63.188L99.4395 61.2324ZM95.2627 60.1234C94.2844 59.7677 93.4271 59.1901 92.6842 58.3748L91.2058 59.7217C92.1576 60.7664 93.2843 61.5321 94.5793 62.003L95.2627 60.1234ZM92.6842 58.3748C92.0457 57.6739 91.674 56.6769 91.674 55.2662H89.674C89.674 57.0383 90.1497 58.5625 91.2058 59.7217L92.6842 58.3748ZM91.674 55.2662C91.674 53.2341 92.4282 51.8655 93.8913 50.9742L92.8507 49.2662C90.7178 50.5656 89.674 52.6277 89.674 55.2662H91.674ZM93.894 50.9726C95.5149 49.9779 97.6143 49.4462 100.253 49.4462V47.4462C97.353 47.4462 94.8644 48.0306 92.848 49.2679L93.894 50.9726ZM124.144 53.7782H125.144V52.7782H124.144V53.7782ZM124.144 57.9632V58.9632H125.144V57.9632H124.144ZM120.672 57.9632V56.9632H119.672V57.9632H120.672ZM121.044 65.8372L120.227 66.4139L120.235 66.4257L120.244 66.4372L121.044 65.8372ZM124.144 66.3332H125.144V65.3332H124.144V66.3332ZM124.144 69.9602L124.46 70.9089L125.144 70.681V69.9602H124.144ZM122.222 70.3632L122.353 71.3547L122.222 70.3632ZM115.96 69.5262L115.397 70.3529L115.405 70.3583L115.96 69.5262ZM114.503 57.9632H115.503V56.9632H114.503V57.9632ZM112.209 57.9632H111.209V58.9632H112.209V57.9632ZM112.209 53.7782V52.7782H111.209V53.7782H112.209ZM114.751 53.7782V54.7782H115.518L115.717 54.0378L114.751 53.7782ZM116.084 48.8182V47.8182H115.317L115.118 48.5587L116.084 48.8182ZM120.672 48.8182H121.672V47.8182H120.672V48.8182ZM120.672 53.7782H119.672V54.7782H120.672V53.7782ZM123.144 53.7782V57.9632H125.144V53.7782H123.144ZM124.144 56.9632H120.672V58.9632H124.144V56.9632ZM119.672 57.9632V64.1942H121.672V57.9632H119.672ZM119.672 64.1942C119.672 65.0107 119.801 65.8101 120.227 66.4139L121.861 65.2606C121.791 65.1617 121.672 64.8658 121.672 64.1942H119.672ZM120.244 66.4372C120.772 67.1407 121.623 67.3332 122.408 67.3332V65.3332C122.154 65.3332 121.999 65.3006 121.913 65.2694C121.836 65.2416 121.833 65.2222 121.844 65.2372L120.244 66.4372ZM122.408 67.3332H124.144V65.3332H122.408V67.3332ZM123.144 66.3332V69.9602H125.144V66.3332H123.144ZM123.828 69.0116C123.415 69.1493 122.843 69.273 122.092 69.3718L122.353 71.3547C123.172 71.2468 123.882 71.1019 124.46 70.9089L123.828 69.0116ZM122.092 69.3718C121.335 69.4713 120.699 69.5182 120.176 69.5182V71.5182C120.811 71.5182 121.539 71.4618 122.353 71.3547L122.092 69.3718ZM120.176 69.5182C118.458 69.5182 117.277 69.2025 116.515 68.6942L115.405 70.3583C116.627 71.1727 118.257 71.5182 120.176 71.5182V69.5182ZM116.523 68.6996C115.917 68.2868 115.503 67.5363 115.503 66.1472H113.503C113.503 67.9408 114.061 69.443 115.397 70.3528L116.523 68.6996ZM115.503 66.1472V57.9632H113.503V66.1472H115.503ZM114.503 56.9632H112.209V58.9632H114.503V56.9632ZM113.209 57.9632V53.7782H111.209V57.9632H113.209ZM112.209 54.7782H114.751V52.7782H112.209V54.7782ZM115.717 54.0378L117.05 49.0778L115.118 48.5587L113.785 53.5187L115.717 54.0378ZM116.084 49.8182H120.672V47.8182H116.084V49.8182ZM119.672 48.8182V53.7782H121.672V48.8182H119.672ZM120.672 54.7782H124.144V52.7782H120.672V54.7782ZM138.228 53.5612L137.912 54.5099L137.936 54.518L137.961 54.5248L138.228 53.5612ZM138.786 58.9242V59.9242H139.786V58.9242H138.786ZM134.012 59.9162L133.26 59.2577L133.254 59.2645L133.248 59.2714L134.012 59.9162ZM133.175 70.1462V71.1462H134.175V70.1462H133.175ZM127.006 70.1462H126.006V71.1462H127.006V70.1462ZM127.006 53.7782V52.7782H126.006V53.7782H127.006ZM132.059 53.7782L133.047 53.6178L132.91 52.7782H132.059V53.7782ZM132.462 56.2582L131.475 56.4186L132.062 60.0266L133.394 56.6226L132.462 56.2582ZM134.229 54.1192L134.737 54.9806L134.746 54.9758L134.754 54.9709L134.229 54.1192ZM136.957 54.3752C137.347 54.3752 137.661 54.4262 137.912 54.5099L138.545 52.6126C138.052 52.4482 137.518 52.3752 136.957 52.3752V54.3752ZM137.961 54.5248C138.143 54.5753 138.263 54.6112 138.331 54.6339C138.369 54.6467 138.367 54.6475 138.345 54.6378C138.34 54.6354 138.288 54.6128 138.223 54.5696C138.193 54.5496 138.119 54.4981 138.041 54.4118C137.982 54.346 137.786 54.1141 137.786 53.7472H139.786C139.786 53.3778 139.59 53.143 139.528 53.0739C139.447 52.9844 139.368 52.9293 139.332 52.9055C139.256 52.8545 139.186 52.8229 139.158 52.8102C139.089 52.7798 139.018 52.7548 138.963 52.7366C138.845 52.6973 138.686 52.6505 138.496 52.5977L137.961 54.5248ZM137.786 53.7472V58.9242H139.786V53.7472H137.786ZM138.786 57.9242H136.802V59.9242H138.786V57.9242ZM136.802 57.9242C135.368 57.9242 134.102 58.2952 133.26 59.2577L134.765 60.5747C135.08 60.2146 135.675 59.9242 136.802 59.9242V57.9242ZM133.248 59.2714C132.478 60.1848 132.175 61.438 132.175 62.8612H134.175C134.175 61.6805 134.431 60.9704 134.777 60.5611L133.248 59.2714ZM132.175 62.8612V70.1462H134.175V62.8612H132.175ZM133.175 69.1462H127.006V71.1462H133.175V69.1462ZM128.006 70.1462V53.7782H126.006V70.1462H128.006ZM127.006 54.7782H132.059V52.7782H127.006V54.7782ZM131.072 53.9386L131.475 56.4186L133.45 56.0978L133.047 53.6178L131.072 53.9386ZM133.394 56.6226C133.692 55.8601 134.142 55.3318 134.737 54.9806L133.722 53.2579C132.705 53.8574 131.977 54.755 131.531 55.8938L133.394 56.6226ZM134.754 54.9709C135.391 54.5787 136.116 54.3752 136.957 54.3752V52.3752C135.773 52.3752 134.68 52.6678 133.705 53.2676L134.754 54.9709ZM155.494 54.6772L155.019 55.5574L155.028 55.5622L155.494 54.6772ZM158.098 65.9922L158.906 65.4041V65.4041L158.098 65.9922ZM159.958 66.3332H160.958V65.3332H159.958V66.3332ZM159.958 69.8982L160.512 70.7303L160.958 70.4334V69.8982H159.958ZM159.462 70.1152L159.778 71.0639L159.799 71.0567L159.821 71.0486L159.462 70.1152ZM158.377 70.3632L158.205 69.378L158.185 69.3816L158.164 69.3861L158.377 70.3632ZM153.758 69.9912L153.32 70.8905L153.335 70.8975L153.349 70.9041L153.758 69.9912ZM152.177 68.4722L153.088 68.0607L152.561 66.8945L151.557 67.6874L152.177 68.4722ZM149.542 69.9602L149.184 69.0264L149.542 69.9602ZM141.637 62.3032L142.335 63.019L142.335 63.0188L141.637 62.3032ZM145.357 60.5672L145.168 59.5852H145.168L145.357 60.5672ZM151.681 60.1022V61.1022H152.681V60.1022H151.681ZM150.999 57.8392L150.393 58.6347L150.401 58.6414L150.41 58.648L150.999 57.8392ZM147.62 57.6842L147.188 56.7821L147.18 56.7859L147.172 56.7898L147.62 57.6842ZM146.938 58.8932V59.8932H147.938V58.8932H146.938ZM140.862 58.8932L139.881 59.0894L140.042 59.8932H140.862V58.8932ZM143.032 54.7702L142.51 53.9169L142.505 53.9202L143.032 54.7702ZM151.681 63.0162H152.681V62.0162H151.681V63.0162ZM147.775 63.6052L148.185 64.5172L148.195 64.5126L147.775 63.6052ZM150.751 66.0232L150.177 65.204L150.171 65.2086L150.164 65.2133L150.751 66.0232ZM149.387 54.4062C151.784 54.4062 153.641 54.8139 155.019 55.5573L155.968 53.7971C154.205 52.8459 151.99 52.4062 149.387 52.4062V54.4062ZM155.028 55.5622C155.67 55.8999 156.11 56.3212 156.396 56.8143C156.684 57.3106 156.85 57.9386 156.85 58.7382H158.85C158.85 57.6572 158.623 56.668 158.126 55.8107C157.626 54.9501 156.888 54.2812 155.959 53.7923L155.028 55.5622ZM156.85 58.7382V65.1242H158.85V58.7382H156.85ZM156.85 65.1242C156.85 65.6335 156.971 66.1435 157.289 66.5804L158.906 65.4041C158.893 65.3863 158.85 65.3176 158.85 65.1242H156.85ZM157.289 66.5804C157.677 67.1144 158.255 67.3332 158.842 67.3332V65.3332C158.79 65.3332 158.793 65.3245 158.824 65.3389C158.84 65.346 158.857 65.3564 158.873 65.3701C158.89 65.3836 158.901 65.3962 158.906 65.4041L157.289 66.5804ZM158.842 67.3332H159.958V65.3332H158.842V67.3332ZM158.958 66.3332V69.8982H160.958V66.3332H158.958ZM159.403 69.0662C159.438 69.0431 159.458 69.034 159.444 69.0406C159.436 69.0448 159.418 69.0535 159.386 69.0673C159.323 69.095 159.23 69.1329 159.103 69.1819L159.821 71.0486C159.962 70.9943 160.086 70.9443 160.188 70.8996C160.27 70.8637 160.4 70.8049 160.512 70.7303L159.403 69.0662ZM159.145 69.1666C158.969 69.2254 158.665 69.2981 158.205 69.378L158.548 71.3485C159.039 71.2631 159.458 71.1704 159.778 71.0639L159.145 69.1666ZM158.164 69.3861C157.775 69.4708 157.301 69.5182 156.734 69.5182V71.5182C157.407 71.5182 158.028 71.4624 158.589 71.3404L158.164 69.3861ZM156.734 69.5182C155.624 69.5182 154.783 69.3544 154.166 69.0784L153.349 70.9041C154.303 71.3308 155.446 71.5182 156.734 71.5182V69.5182ZM154.195 69.092C153.595 68.7999 153.262 68.4462 153.088 68.0607L151.265 68.8838C151.67 69.7796 152.391 70.4385 153.32 70.8905L154.195 69.092ZM151.557 67.6874C150.854 68.2423 150.065 68.6891 149.184 69.0264L149.899 70.8941C150.961 70.4874 151.928 69.9422 152.796 69.2571L151.557 67.6874ZM149.184 69.0264C148.351 69.3452 147.341 69.5182 146.132 69.5182V71.5182C147.526 71.5182 148.789 71.3193 149.899 70.8941L149.184 69.0264ZM146.132 69.5182C144.315 69.5182 143.138 69.1525 142.43 68.5887C141.765 68.0596 141.366 67.237 141.366 65.9302H139.366C139.366 67.6822 139.927 69.1535 141.184 70.1537C142.398 71.1193 144.104 71.5182 146.132 71.5182V69.5182ZM141.366 65.9302C141.366 64.5125 141.74 63.5997 142.335 63.019L140.938 61.5875C139.839 62.6602 139.366 64.1654 139.366 65.9302H141.366ZM142.335 63.0188C143.021 62.3488 144.06 61.835 145.545 61.5492L145.168 59.5852C143.43 59.9195 141.988 60.563 140.938 61.5877L142.335 63.0188ZM145.545 61.5492C147.07 61.2561 149.108 61.1022 151.681 61.1022V59.1022C149.045 59.1022 146.867 59.2584 145.168 59.5852L145.545 61.5492ZM152.681 60.1022V59.2962H150.681V60.1022H152.681ZM152.681 59.2962C152.681 58.3869 152.339 57.5776 151.587 57.0305L150.41 58.648C150.567 58.7622 150.681 58.9242 150.681 59.2962H152.681ZM151.605 57.0438C150.952 56.5465 150.152 56.3432 149.294 56.3432V58.3432C149.841 58.3432 150.177 58.4706 150.393 58.6347L151.605 57.0438ZM149.294 56.3432C148.535 56.3432 147.824 56.4779 147.188 56.7821L148.051 58.5864C148.366 58.4359 148.771 58.3432 149.294 58.3432V56.3432ZM147.172 56.7898C146.813 56.9697 146.49 57.2307 146.261 57.5938C146.032 57.9584 145.938 58.3639 145.938 58.7692H147.938C147.938 58.7217 147.943 58.6931 147.947 58.6786C147.95 58.6652 147.954 58.6599 147.955 58.6582C147.956 58.6563 147.961 58.649 147.975 58.6368C147.99 58.6238 148.018 58.603 148.067 58.5787L147.172 56.7898ZM145.938 58.7692V58.8932H147.938V58.7692H145.938ZM146.938 57.8932H140.862V59.8932H146.938V57.8932ZM141.842 58.6971C141.842 58.6987 141.839 58.6808 141.836 58.636C141.833 58.5929 141.831 58.5347 141.831 58.4592H139.831C139.831 58.6693 139.841 58.8904 139.881 59.0894L141.842 58.6971ZM141.831 58.4592C141.831 57.2998 142.345 56.372 143.558 55.6202L142.505 53.9202C140.783 54.9872 139.831 56.5186 139.831 58.4592H141.831ZM143.553 55.6235C144.818 54.8504 146.725 54.4062 149.387 54.4062V52.4062C146.551 52.4062 144.221 52.8714 142.51 53.917L143.553 55.6235ZM151.681 62.0162C149.885 62.0162 148.404 62.2115 147.354 62.6979L148.195 64.5126C148.84 64.2137 149.963 64.0162 151.681 64.0162V62.0162ZM147.364 62.6933C146.352 63.1487 145.535 63.9298 145.535 65.1242H147.535C147.535 65.0374 147.544 64.8058 148.185 64.5172L147.364 62.6933ZM145.535 65.1242C145.535 65.8924 145.812 66.6094 146.469 67.0924C147.069 67.5332 147.847 67.6742 148.643 67.6742V65.6742C148.033 65.6742 147.757 65.557 147.654 65.4811C147.608 65.4474 147.535 65.3894 147.535 65.1242H145.535ZM148.643 67.6742C149.639 67.6742 150.552 67.4019 151.337 66.8332L150.164 65.2133C149.751 65.5126 149.258 65.6742 148.643 65.6742V67.6742ZM151.324 66.8425C152.156 66.2602 152.681 65.4405 152.681 64.4112H150.681C150.681 64.6633 150.585 64.9183 150.177 65.204L151.324 66.8425ZM152.681 64.4112V63.0162H150.681V64.4112H152.681ZM177.348 70.1462L176.385 70.4149L176.589 71.1462H177.348V70.1462ZM174.806 61.0322L175.77 60.7636L175.566 60.0322H174.806V61.0322ZM174.682 61.0322V60.0322H173.926L173.72 60.7605L174.682 61.0322ZM172.109 70.1462V71.1462H172.866L173.072 70.4179L172.109 70.1462ZM166.095 70.1462L165.156 70.4896L165.396 71.1462H166.095V70.1462ZM160.112 53.7782V52.7782H158.682L159.173 54.1216L160.112 53.7782ZM166.746 53.7782L167.715 53.5299L167.522 52.7782H166.746V53.7782ZM169.226 63.4502L168.258 63.6986L168.45 64.4502H169.226V63.4502ZM169.443 63.4502V64.4502H170.212L170.41 63.7073L169.443 63.4502ZM172.016 53.7782V52.7782H171.248L171.05 53.5212L172.016 53.7782ZM178.154 53.7782L179.123 53.5299L178.93 52.7782H178.154V53.7782ZM180.634 63.4502L179.666 63.6986L179.858 64.4502H180.634V63.4502ZM180.851 63.4502V64.4502H181.625L181.819 63.7015L180.851 63.4502ZM183.362 53.7782V52.7782H182.589L182.394 53.527L183.362 53.7782ZM189.376 53.7782L190.315 54.1231L190.809 52.7782H189.376V53.7782ZM183.362 70.1462V71.1462H184.06L184.301 70.4911L183.362 70.1462ZM178.312 69.8776L175.77 60.7636L173.843 61.3009L176.385 70.4149L178.312 69.8776ZM174.806 60.0322H174.682V62.0322H174.806V60.0322ZM173.72 60.7605L171.147 69.8745L173.072 70.4179L175.645 61.3039L173.72 60.7605ZM172.109 69.1462H166.095V71.1462H172.109V69.1462ZM167.035 69.8029L161.052 53.4349L159.173 54.1216L165.156 70.4896L167.035 69.8029ZM160.112 54.7782H166.746V52.7782H160.112V54.7782ZM165.778 54.0266L168.258 63.6986L170.195 63.2019L167.715 53.5299L165.778 54.0266ZM169.226 64.4502H169.443V62.4502H169.226V64.4502ZM170.41 63.7073L172.983 54.0353L171.05 53.5212L168.477 63.1932L170.41 63.7073ZM172.016 54.7782H178.154V52.7782H172.016V54.7782ZM177.186 54.0266L179.666 63.6986L181.603 63.2019L179.123 53.5299L177.186 54.0266ZM180.634 64.4502H180.851V62.4502H180.634V64.4502ZM181.819 63.7015L184.33 54.0295L182.394 53.527L179.883 63.199L181.819 63.7015ZM183.362 54.7782H189.376V52.7782H183.362V54.7782ZM188.438 53.4334L182.424 69.8014L184.301 70.4911L190.315 54.1231L188.438 53.4334ZM183.362 69.1462H177.348V71.1462H183.362V69.1462ZM197.447 55.2972H196.447V57.8321L198.177 55.98L197.447 55.2972ZM207.15 55.5762L206.38 56.2143L206.384 56.2197L207.15 55.5762ZM207.15 68.3482L206.38 67.7102L207.15 68.3482ZM196.827 67.8212L197.659 67.2665L196.366 65.3281L195.851 67.6002L196.827 67.8212ZM196.3 70.1462V71.1462H197.098L197.275 70.3673L196.3 70.1462ZM191.278 70.1462H190.278V71.1462H191.278V70.1462ZM191.278 47.6712V46.6712H190.278V47.6712H191.278ZM197.447 47.6712H198.447V46.6712H197.447V47.6712ZM198.067 58.9552L198.882 59.534L198.887 59.5279L198.891 59.5218L198.067 58.9552ZM198.067 65.0002L197.251 65.579L198.067 65.0002ZM198.177 55.98C199.148 54.9411 200.403 54.4062 202.035 54.4062V52.4062C199.905 52.4062 198.101 53.132 196.716 54.6145L198.177 55.98ZM202.035 54.4062C204.007 54.4062 205.405 55.0385 206.38 56.2143L207.92 54.9382C206.497 53.2207 204.485 52.4062 202.035 52.4062V54.4062ZM206.384 56.2197C207.371 57.3935 207.948 59.2408 207.948 61.9312H209.948C209.948 59.0004 209.326 56.6109 207.915 54.9328L206.384 56.2197ZM207.948 61.9312C207.948 64.6431 207.371 66.5143 206.38 67.7102L207.92 68.9863C209.326 67.2889 209.948 64.8821 209.948 61.9312H207.948ZM206.38 67.7102C205.405 68.886 204.007 69.5182 202.035 69.5182V71.5182C204.485 71.5182 206.497 70.7038 207.92 68.9863L206.38 67.7102ZM202.035 69.5182C200.075 69.5182 198.661 68.7695 197.659 67.2665L195.995 68.3759C197.39 70.469 199.448 71.5182 202.035 71.5182V69.5182ZM195.851 67.6002L195.324 69.9252L197.275 70.3673L197.802 68.0423L195.851 67.6002ZM196.3 69.1462H191.278V71.1462H196.3V69.1462ZM192.278 70.1462V47.6712H190.278V70.1462H192.278ZM191.278 48.6712H197.447V46.6712H191.278V48.6712ZM196.447 47.6712V55.2972H198.447V47.6712H196.447ZM200.113 56.9632C198.925 56.9632 197.911 57.4166 197.243 58.3887L198.891 59.5218C199.132 59.1712 199.482 58.9632 200.113 58.9632V56.9632ZM197.251 58.3765C196.644 59.2324 196.385 60.2904 196.385 61.4662H198.385C198.385 60.5755 198.58 59.9594 198.882 59.534L197.251 58.3765ZM196.385 61.4662V62.4892H198.385V61.4662H196.385ZM196.385 62.4892C196.385 63.6651 196.644 64.7231 197.251 65.579L198.882 64.4215C198.58 63.9961 198.385 63.38 198.385 62.4892H196.385ZM197.251 65.579C197.925 66.5283 198.938 66.9612 200.113 66.9612V64.9612C199.469 64.9612 199.118 64.7535 198.882 64.4215L197.251 65.579ZM200.113 66.9612C201.205 66.9612 202.19 66.6294 202.877 65.8153C203.536 65.0339 203.779 63.9697 203.779 62.7992H201.779C201.779 63.7368 201.578 64.2536 201.348 64.5261C201.145 64.766 200.798 64.9612 200.113 64.9612V66.9612ZM203.779 62.7992V61.1562H201.779V62.7992H203.779ZM203.779 61.1562C203.779 59.9773 203.536 58.9069 202.88 58.1206C202.194 57.2997 201.208 56.9632 200.113 56.9632V58.9632C200.795 58.9632 201.141 59.159 201.345 59.4024C201.577 59.6804 201.779 60.2065 201.779 61.1562H203.779ZM227.237 55.5142L226.571 56.2595L226.576 56.2638L227.237 55.5142ZM229.624 63.0162V64.0162H230.624V63.0162H229.624ZM217.348 63.0162V62.0162H216.348V63.0162H217.348ZM218.123 65.6822L217.366 66.3352L217.372 66.3425L217.379 66.3498L218.123 65.6822ZM222.897 65.9302L222.239 65.1777L222.231 65.1846L222.223 65.1918L222.897 65.9302ZM223.641 64.1942V63.1942H222.641V64.1942H223.641ZM229.624 64.1942H230.624V63.1942H229.624V64.1942ZM227.361 68.8442L226.767 68.0403L227.361 68.8442ZM213.69 68.4102L213.042 69.1715L213.048 69.1761L213.69 68.4102ZM213.628 55.5762L212.965 54.8278L213.628 55.5762ZM217.379 60.1022L216.387 59.9796L216.248 61.1022H217.379V60.1022ZM223.393 60.1022V61.1022H224.393V60.1022H223.393ZM222.649 58.0872L221.927 58.7791L221.935 58.7868L221.942 58.7943L222.649 58.0872ZM220.386 54.4062C223.24 54.4062 225.248 55.0759 226.571 56.2595L227.904 54.769C226.086 53.1419 223.526 52.4062 220.386 52.4062V54.4062ZM226.576 56.2638C227.882 57.4175 228.624 59.2469 228.624 61.9622H230.624C230.624 58.8909 229.776 56.4216 227.899 54.7647L226.576 56.2638ZM228.624 61.9622V63.0162H230.624V61.9622H228.624ZM229.624 62.0162H217.348V64.0162H229.624V62.0162ZM216.348 63.0162C216.348 64.3203 216.632 65.4836 217.366 66.3352L218.881 65.0293C218.582 64.6822 218.348 64.0682 218.348 63.0162H216.348ZM217.379 66.3498C218.174 67.2363 219.334 67.5812 220.634 67.5812V65.5812C219.661 65.5812 219.148 65.3268 218.868 65.0147L217.379 66.3498ZM220.634 67.5812C221.774 67.5812 222.828 67.3475 223.572 66.6687L222.223 65.1918C222.016 65.381 221.562 65.5812 220.634 65.5812V67.5812ZM223.556 66.6828C224.292 66.0391 224.641 65.1743 224.641 64.1942H222.641C222.641 64.6608 222.495 64.9534 222.239 65.1777L223.556 66.6828ZM223.641 65.1942H229.624V63.1942H223.641V65.1942ZM228.624 64.1942C228.624 65.8824 228.004 67.1251 226.767 68.0403L227.956 69.6482C229.736 68.3313 230.624 66.4741 230.624 64.1942H228.624ZM226.767 68.0403C225.501 68.9767 223.547 69.5182 220.758 69.5182V71.5182C223.757 71.5182 226.205 70.9438 227.956 69.6482L226.767 68.0403ZM220.758 69.5182C217.865 69.5182 215.768 68.8488 214.333 67.6443L213.048 69.1761C214.961 70.7824 217.576 71.5182 220.758 71.5182V69.5182ZM214.339 67.649C212.952 66.4674 212.179 64.6378 212.179 61.9622H210.179C210.179 65.032 211.081 67.5011 213.042 69.1715L214.339 67.649ZM212.179 61.9622C212.179 59.3497 212.931 57.5301 214.292 56.3247L212.965 54.8278C211.06 56.5157 210.179 58.9534 210.179 61.9622H212.179ZM214.292 56.3247C215.69 55.0857 217.679 54.4062 220.386 54.4062V52.4062C217.348 52.4062 214.832 53.1734 212.965 54.8278L214.292 56.3247ZM220.634 56.3432C219.513 56.3432 218.497 56.6092 217.717 57.2702C216.931 57.9368 216.522 58.8884 216.387 59.9796L218.372 60.2249C218.464 59.4768 218.712 59.0489 219.01 58.7958C219.316 58.5371 219.813 58.3432 220.634 58.3432V56.3432ZM217.379 61.1022H223.393V59.1022H217.379V61.1022ZM224.393 60.1022C224.393 59.0486 224.078 58.1016 223.357 57.3801L221.942 58.7943C222.213 59.0649 222.393 59.4612 222.393 60.1022H224.393ZM223.371 57.3953C222.661 56.6536 221.699 56.3432 220.634 56.3432V58.3432C221.306 58.3432 221.688 58.5289 221.927 58.7791L223.371 57.3953ZM243.822 53.5612L243.506 54.5099L243.53 54.518L243.555 54.5248L243.822 53.5612ZM244.38 58.9242V59.9242H245.38V58.9242H244.38ZM239.606 59.9162L238.854 59.2577L238.848 59.2645L238.842 59.2714L239.606 59.9162ZM238.769 70.1462V71.1462H239.769V70.1462H238.769ZM232.6 70.1462H231.6V71.1462H232.6V70.1462ZM232.6 53.7782V52.7782H231.6V53.7782H232.6ZM237.653 53.7782L238.64 53.6178L238.504 52.7782H237.653V53.7782ZM238.056 56.2582L237.069 56.4186L237.655 60.0266L238.987 56.6226L238.056 56.2582ZM239.823 54.1192L240.331 54.9806L240.339 54.9758L240.347 54.9709L239.823 54.1192ZM242.551 54.3752C242.941 54.3752 243.255 54.4262 243.506 54.5099L244.138 52.6126C243.646 52.4482 243.112 52.3752 242.551 52.3752V54.3752ZM243.555 54.5248C243.737 54.5753 243.856 54.6112 243.925 54.6339C243.963 54.6467 243.961 54.6475 243.939 54.6378C243.934 54.6354 243.882 54.6128 243.817 54.5696C243.787 54.5496 243.712 54.4981 243.635 54.4118C243.575 54.346 243.38 54.1141 243.38 53.7472H245.38C245.38 53.3778 245.184 53.143 245.121 53.0739C245.041 52.9844 244.962 52.9293 244.926 52.9055C244.85 52.8545 244.78 52.8229 244.751 52.8102C244.683 52.7798 244.612 52.7548 244.557 52.7366C244.439 52.6973 244.28 52.6505 244.09 52.5977L243.555 54.5248ZM243.38 53.7472V58.9242H245.38V53.7472H243.38ZM244.38 57.9242H242.396V59.9242H244.38V57.9242ZM242.396 57.9242C240.961 57.9242 239.696 58.2952 238.854 59.2577L240.359 60.5747C240.674 60.2146 241.268 59.9242 242.396 59.9242V57.9242ZM238.842 59.2714C238.071 60.1848 237.769 61.438 237.769 62.8612H239.769C239.769 61.6805 240.025 60.9704 240.371 60.5611L238.842 59.2714ZM237.769 62.8612V70.1462H239.769V62.8612H237.769ZM238.769 69.1462H232.6V71.1462H238.769V69.1462ZM233.6 70.1462V53.7782H231.6V70.1462H233.6ZM232.6 54.7782H237.653V52.7782H232.6V54.7782ZM236.666 53.9386L237.069 56.4186L239.043 56.0978L238.64 53.6178L236.666 53.9386ZM238.987 56.6226C239.286 55.8601 239.736 55.3318 240.331 54.9806L239.315 53.2579C238.299 53.8574 237.571 54.755 237.125 55.8938L238.987 56.6226ZM240.347 54.9709C240.985 54.5787 241.71 54.3752 242.551 54.3752V52.3752C241.367 52.3752 240.274 52.6678 239.299 53.2676L240.347 54.9709ZM258.898 53.5612L258.582 54.5099L258.606 54.518L258.631 54.5248L258.898 53.5612ZM259.456 58.9242V59.9242H260.456V58.9242H259.456ZM254.682 59.9162L253.93 59.2577L253.924 59.2645L253.918 59.2714L254.682 59.9162ZM253.845 70.1462V71.1462H254.845V70.1462H253.845ZM247.676 70.1462H246.676V71.1462H247.676V70.1462ZM247.676 53.7782V52.7782H246.676V53.7782H247.676ZM252.729 53.7782L253.716 53.6178L253.58 52.7782H252.729V53.7782ZM253.132 56.2582L252.145 56.4186L252.732 60.0266L254.064 56.6226L253.132 56.2582ZM254.899 54.1192L255.407 54.9806L255.415 54.9758L255.424 54.9709L254.899 54.1192ZM257.627 54.3752C258.017 54.3752 258.331 54.4262 258.582 54.5099L259.215 52.6126C258.722 52.4482 258.188 52.3752 257.627 52.3752V54.3752ZM258.631 54.5248C258.813 54.5753 258.933 54.6112 259.001 54.6339C259.039 54.6467 259.037 54.6475 259.015 54.6378C259.01 54.6354 258.958 54.6128 258.893 54.5696C258.863 54.5496 258.789 54.4981 258.711 54.4118C258.652 54.346 258.456 54.1141 258.456 53.7472H260.456C260.456 53.3778 260.26 53.143 260.198 53.0739C260.117 52.9844 260.038 52.9293 260.002 52.9055C259.926 52.8545 259.856 52.8229 259.828 52.8102C259.759 52.7798 259.688 52.7548 259.633 52.7366C259.515 52.6973 259.356 52.6505 259.166 52.5977L258.631 54.5248ZM258.456 53.7472V58.9242H260.456V53.7472H258.456ZM259.456 57.9242H257.472V59.9242H259.456V57.9242ZM257.472 57.9242C256.038 57.9242 254.772 58.2952 253.93 59.2577L255.435 60.5747C255.75 60.2146 256.345 59.9242 257.472 59.9242V57.9242ZM253.918 59.2714C253.147 60.1848 252.845 61.438 252.845 62.8612H254.845C254.845 61.6805 255.101 60.9704 255.447 60.5611L253.918 59.2714ZM252.845 62.8612V70.1462H254.845V62.8612H252.845ZM253.845 69.1462H247.676V71.1462H253.845V69.1462ZM248.676 70.1462V53.7782H246.676V70.1462H248.676ZM247.676 54.7782H252.729V52.7782H247.676V54.7782ZM251.742 53.9386L252.145 56.4186L254.119 56.0978L253.716 53.6178L251.742 53.9386ZM254.064 56.6226C254.362 55.8601 254.812 55.3318 255.407 54.9806L254.391 53.2579C253.375 53.8574 252.647 54.755 252.201 55.8938L254.064 56.6226ZM255.424 54.9709C256.061 54.5787 256.786 54.3752 257.627 54.3752V52.3752C256.443 52.3752 255.35 52.6678 254.375 53.2676L255.424 54.9709ZM274.49 69.6502L275.428 69.9967L275.429 69.9949L274.49 69.6502ZM271.359 74.8582L270.67 74.1332L270.664 74.1391L270.658 74.1451L271.359 74.8582ZM262.648 76.0982H261.648V76.8011L262.309 77.0391L262.648 76.0982ZM262.648 72.4092V71.4092H261.648V72.4092H262.648ZM267.887 70.1462L268.869 70.3346L268.924 70.0479L268.816 69.7767L267.887 70.1462ZM261.377 53.7782V52.7782H259.903L260.448 54.1478L261.377 53.7782ZM268.011 53.7782L268.972 53.5017L268.764 52.7782H268.011V53.7782ZM271.142 64.6592L270.181 64.9358L270.389 65.6592H271.142V64.6592ZM271.359 64.6592V65.6592H272.129L272.326 64.9154L271.359 64.6592ZM274.242 53.7782V52.7782H273.472L273.275 53.5221L274.242 53.7782ZM280.318 53.7782L281.257 54.1229L281.75 52.7782H280.318V53.7782ZM273.552 69.3038C272.736 71.5116 271.762 73.096 270.67 74.1332L272.048 75.5832C273.436 74.2645 274.549 72.3768 275.428 69.9967L273.552 69.3038ZM270.658 74.1451C269.676 75.1105 268.242 75.6562 266.213 75.6562V77.6562C268.606 77.6562 270.603 77.0033 272.06 75.5714L270.658 74.1451ZM266.213 75.6562C264.96 75.6562 263.89 75.4826 262.987 75.1574L262.309 77.0391C263.472 77.4579 264.779 77.6562 266.213 77.6562V75.6562ZM263.648 76.0982V72.4092H261.648V76.0982H263.648ZM262.648 73.4092H265.128V71.4092H262.648V73.4092ZM265.128 73.4092C266.063 73.4092 266.928 73.18 267.614 72.6167C268.302 72.0525 268.693 71.2504 268.869 70.3346L266.905 69.9579C266.791 70.5507 266.578 70.8801 266.346 71.0703C266.113 71.2614 265.743 71.4092 265.128 71.4092V73.4092ZM268.816 69.7767L262.306 53.4087L260.448 54.1478L266.958 70.5158L268.816 69.7767ZM261.377 54.7782H268.011V52.7782H261.377V54.7782ZM267.05 54.0548L270.181 64.9358L272.103 64.3827L268.972 53.5017L267.05 54.0548ZM271.142 65.6592H271.359V63.6592H271.142V65.6592ZM272.326 64.9154L275.209 54.0344L273.275 53.5221L270.392 64.4031L272.326 64.9154ZM274.242 54.7782H280.318V52.7782H274.242V54.7782ZM279.379 53.4336L273.551 69.3056L275.429 69.9949L281.257 54.1229L279.379 53.4336ZM296.913 70.1462L295.955 70.4327L296.168 71.1462H296.913V70.1462ZM296.014 67.1392L296.972 66.8528L296.759 66.1392H296.014V67.1392ZM288.543 67.1392V66.1392H287.798L287.585 66.8528L288.543 67.1392ZM287.644 70.1462V71.1462H288.389L288.602 70.4327L287.644 70.1462ZM280.638 70.1462L279.699 69.8035L279.209 71.1462H280.638V70.1462ZM288.419 48.8182V47.8182H287.719L287.48 48.4755L288.419 48.8182ZM296.386 48.8182L297.326 48.4755L297.086 47.8182H296.386V48.8182ZM304.167 70.1462V71.1462H305.596L305.107 69.8035L304.167 70.1462ZM289.969 62.3652L289.011 62.0797L288.628 63.3652H289.969V62.3652ZM294.588 62.3652V63.3652H295.924L295.548 62.0833L294.588 62.3652ZM292.356 54.7702L293.316 54.4883L293.105 53.7702H292.356V54.7702ZM292.232 54.7702V53.7702H291.487L291.274 54.4847L292.232 54.7702ZM297.871 69.8598L296.972 66.8528L295.056 67.4257L295.955 70.4327L297.871 69.8598ZM296.014 66.1392H288.543V68.1392H296.014V66.1392ZM287.585 66.8528L286.686 69.8598L288.602 70.4327L289.501 67.4257L287.585 66.8528ZM287.644 69.1462H280.638V71.1462H287.644V69.1462ZM281.578 70.489L289.359 49.161L287.48 48.4755L279.699 69.8035L281.578 70.489ZM288.419 49.8182H296.386V47.8182H288.419V49.8182ZM295.447 49.161L303.228 70.489L305.107 69.8035L297.326 48.4755L295.447 49.161ZM304.167 69.1462H296.913V71.1462H304.167V69.1462ZM289.969 63.3652H294.588V61.3652H289.969V63.3652ZM295.548 62.0833L293.316 54.4883L291.397 55.0522L293.629 62.6472L295.548 62.0833ZM292.356 53.7702H292.232V55.7702H292.356V53.7702ZM291.274 54.4847L289.011 62.0797L290.927 62.6508L293.19 55.0558L291.274 54.4847ZM324.978 70.1462V71.1462H326.93L325.79 69.5619L324.978 70.1462ZM317.786 70.1462L316.929 70.6623L317.221 71.1462H317.786V70.1462ZM314.686 65.0002L315.543 64.4842L315.251 64.0002H314.686V65.0002ZM314.562 65.0002V64.0002H314L313.708 64.4805L314.562 65.0002ZM311.431 70.1462V71.1462H311.993L312.285 70.666L311.431 70.1462ZM304.58 70.1462L303.77 69.5593L302.62 71.1462H304.58V70.1462ZM310.873 61.4662L311.683 62.0532L312.112 61.461L311.678 60.8725L310.873 61.4662ZM305.2 53.7782V52.7782H303.219L304.395 54.372L305.2 53.7782ZM312.454 53.7782L313.312 53.2637L313.02 52.7782H312.454V53.7782ZM315.058 58.1182L314.201 58.6327L314.492 59.1182H315.058V58.1182ZM315.182 58.1182V59.1182H315.748L316.04 58.6327L315.182 58.1182ZM317.786 53.7782V52.7782H317.22L316.929 53.2637L317.786 53.7782ZM324.606 53.7782L325.412 54.3706L326.582 52.7782H324.606V53.7782ZM318.84 61.6212L318.034 61.0289L317.603 61.6151L318.029 62.2055L318.84 61.6212ZM324.978 69.1462H317.786V71.1462H324.978V69.1462ZM318.643 69.6302L315.543 64.4842L313.829 65.5163L316.929 70.6623L318.643 69.6302ZM314.686 64.0002H314.562V66.0002H314.686V64.0002ZM313.708 64.4805L310.577 69.6265L312.285 70.666L315.416 65.52L313.708 64.4805ZM311.431 69.1462H304.58V71.1462H311.431V69.1462ZM305.39 70.7332L311.683 62.0532L310.063 60.8793L303.77 69.5593L305.39 70.7332ZM311.678 60.8725L306.005 53.1845L304.395 54.372L310.068 62.06L311.678 60.8725ZM305.2 54.7782H312.454V52.7782H305.2V54.7782ZM311.597 54.2927L314.201 58.6327L315.916 57.6037L313.312 53.2637L311.597 54.2927ZM315.058 59.1182H315.182V57.1182H315.058V59.1182ZM316.04 58.6327L318.644 54.2927L316.929 53.2637L314.325 57.6037L316.04 58.6327ZM317.786 54.7782H324.606V52.7782H317.786V54.7782ZM323.8 53.1859L318.034 61.0289L319.646 62.2136L325.412 54.3706L323.8 53.1859ZM318.029 62.2055L324.167 70.7305L325.79 69.5619L319.652 61.0369L318.029 62.2055ZM341.792 55.5142L341.125 56.2595L341.13 56.2638L341.792 55.5142ZM344.179 63.0162V64.0162H345.179V63.0162H344.179ZM331.903 63.0162V62.0162H330.903V63.0162H331.903ZM332.678 65.6822L331.921 66.3352L331.927 66.3425L331.934 66.3498L332.678 65.6822ZM337.452 65.9302L336.794 65.1777L336.786 65.1846L336.778 65.1918L337.452 65.9302ZM338.196 64.1942V63.1942H337.196V64.1942H338.196ZM344.179 64.1942H345.179V63.1942H344.179V64.1942ZM341.916 68.8442L341.321 68.0403L341.916 68.8442ZM328.245 68.4102L327.597 69.1715L327.602 69.1761L328.245 68.4102ZM328.183 55.5762L327.52 54.8278L328.183 55.5762ZM331.934 60.1022L330.942 59.9796L330.803 61.1022H331.934V60.1022ZM337.948 60.1022V61.1022H338.948V60.1022H337.948ZM337.204 58.0872L336.482 58.7791L336.49 58.7868L336.497 58.7943L337.204 58.0872ZM334.941 54.4062C337.795 54.4062 339.803 55.0759 341.125 56.2595L342.459 54.769C340.64 53.1419 338.081 52.4062 334.941 52.4062V54.4062ZM341.13 56.2638C342.437 57.4175 343.179 59.2469 343.179 61.9622H345.179C345.179 58.8909 344.33 56.4216 342.454 54.7647L341.13 56.2638ZM343.179 61.9622V63.0162H345.179V61.9622H343.179ZM344.179 62.0162H331.903V64.0162H344.179V62.0162ZM330.903 63.0162C330.903 64.3203 331.187 65.4836 331.921 66.3352L333.436 65.0293C333.136 64.6822 332.903 64.0682 332.903 63.0162H330.903ZM331.934 66.3498C332.728 67.2363 333.889 67.5812 335.189 67.5812V65.5812C334.216 65.5812 333.703 65.3268 333.423 65.0147L331.934 66.3498ZM335.189 67.5812C336.329 67.5812 337.383 67.3475 338.126 66.6687L336.778 65.1918C336.571 65.381 336.116 65.5812 335.189 65.5812V67.5812ZM338.111 66.6828C338.846 66.0391 339.196 65.1743 339.196 64.1942H337.196C337.196 64.6608 337.05 64.9534 336.794 65.1777L338.111 66.6828ZM338.196 65.1942H344.179V63.1942H338.196V65.1942ZM343.179 64.1942C343.179 65.8824 342.559 67.1251 341.321 68.0403L342.511 69.6482C344.291 68.3313 345.179 66.4741 345.179 64.1942H343.179ZM341.321 68.0403C340.056 68.9767 338.101 69.5182 335.313 69.5182V71.5182C338.312 71.5182 340.759 70.9438 342.511 69.6482L341.321 68.0403ZM335.313 69.5182C332.419 69.5182 330.323 68.8488 328.888 67.6443L327.602 69.1761C329.516 70.7824 332.131 71.5182 335.313 71.5182V69.5182ZM328.894 67.649C327.507 66.4674 326.734 64.6378 326.734 61.9622H324.734C324.734 65.032 325.636 67.5011 327.597 69.1715L328.894 67.649ZM326.734 61.9622C326.734 59.3497 327.486 57.5301 328.846 56.3247L327.52 54.8278C325.615 56.5157 324.734 58.9534 324.734 61.9622H326.734ZM328.846 56.3247C330.245 55.0857 332.234 54.4062 334.941 54.4062V52.4062C331.903 52.4062 329.387 53.1734 327.52 54.8278L328.846 56.3247ZM335.189 56.3432C334.068 56.3432 333.052 56.6092 332.272 57.2702C331.485 57.9368 331.077 58.8884 330.942 59.9796L332.927 60.2249C333.019 59.4768 333.266 59.0489 333.565 58.7958C333.87 58.5371 334.368 58.3432 335.189 58.3432V56.3432ZM331.934 61.1022H337.948V59.1022H331.934V61.1022ZM338.948 60.1022C338.948 59.0486 338.633 58.1016 337.911 57.3801L336.497 58.7943C336.768 59.0649 336.948 59.4612 336.948 60.1022H338.948ZM337.926 57.3953C337.215 56.6536 336.254 56.3432 335.189 56.3432V58.3432C335.861 58.3432 336.242 58.5289 336.482 58.7791L337.926 57.3953Z" fill="#EBFF00" mask="url(#path-2-outside-1_64_7)"/>
</g>
<defs>
<filter id="filter0_d_64_7" x="0.0626221" y="0.5" width="448.853" height="132.509" filterUnits="userSpaceOnUse" color-interpolation-filters="sRGB">
<feFlood flood-opacity="0" result="BackgroundImageFix"/>
<feColorMatrix in="SourceAlpha" type="matrix" values="0 0 0 0 0 0 0 0 0 0 0 0 0 0 0 0 0 0 127 0" result="hardAlpha"/>
<feOffset dx="-8" dy="8"/>
<feGaussianBlur stdDeviation="2"/>
<feComposite in2="hardAlpha" operator="out"/>
<feColorMatrix type="matrix" values="0 0 0 0 0 0 0 0 0 0 0 0 0 0 0 0 0 0 0.5 0"/>
<feBlend mode="normal" in2="BackgroundImageFix" result="effect1_dropShadow_64_7"/>
<feBlend mode="normal" in="SourceGraphic" in2="effect1_dropShadow_64_7" result="shape"/>
</filter>
</defs>
</svg>
