<svg width="186" height="12" viewBox="0 0 186 12" fill="none" xmlns="http://www.w3.org/2000/svg">
<path d="M1.27832 9.30078C1.23893 9.21484 1.20133 9.09131 1.16553 8.93018C1.1333 8.76904 1.10465 8.60075 1.07959 8.42529C1.05811 8.24984 1.0402 8.08154 1.02588 7.92041C1.01156 7.7557 1.00439 7.63037 1.00439 7.54443H1.66504C1.76172 7.70557 1.94613 7.85238 2.21826 7.98486C2.4904 8.11735 2.83236 8.23014 3.24414 8.32324C3.65592 8.41634 4.12858 8.48796 4.66211 8.53809C5.19564 8.58822 5.77035 8.61328 6.38623 8.61328C6.74072 8.61328 7.02002 8.56673 7.22412 8.47363C7.42822 8.38053 7.53027 8.26416 7.53027 8.12451C7.53027 8.00277 7.46582 7.90609 7.33691 7.83447C7.21159 7.75928 7.03971 7.7002 6.82129 7.65723C6.60286 7.61068 6.34863 7.57666 6.05859 7.55518C5.76855 7.53011 5.45882 7.50684 5.12939 7.48535C4.80355 7.46387 4.46696 7.4388 4.11963 7.41016C3.77588 7.37793 3.43929 7.33496 3.10986 7.28125C2.78402 7.22396 2.47607 7.15055 2.18604 7.06104C1.896 6.96794 1.64176 6.84977 1.42334 6.70654C1.20492 6.55973 1.03125 6.38249 0.902344 6.1748C0.777018 5.96354 0.714355 5.7111 0.714355 5.41748C0.714355 5.14535 0.768066 4.90007 0.875488 4.68164C0.98291 4.46322 1.13509 4.26986 1.33203 4.10156C1.52897 3.93327 1.76351 3.78825 2.03564 3.6665C2.31136 3.54476 2.61393 3.4445 2.94336 3.36572C3.27637 3.28695 3.63265 3.22965 4.01221 3.19385C4.39176 3.15446 4.78385 3.13477 5.18848 3.13477C5.49642 3.13477 5.81152 3.14193 6.13379 3.15625C6.45964 3.16699 6.7819 3.18311 7.10059 3.20459C7.41927 3.22249 7.729 3.24219 8.02979 3.26367C8.33057 3.28516 8.61165 3.30664 8.87305 3.32812C9.13444 3.34603 9.37077 3.36214 9.58203 3.37646C9.79329 3.38721 9.96696 3.39258 10.103 3.39258C10.2319 3.39258 10.3662 3.389 10.5059 3.38184C10.6455 3.37109 10.7816 3.35498 10.9141 3.3335C11.0501 3.31201 11.1755 3.28516 11.29 3.25293C11.4082 3.2207 11.5085 3.17952 11.5908 3.12939C11.6302 3.21533 11.666 3.33171 11.6982 3.47852C11.734 3.62174 11.7627 3.77393 11.7842 3.93506C11.8092 4.09261 11.8289 4.24479 11.8433 4.3916C11.8576 4.53841 11.8647 4.65837 11.8647 4.75146H11.2202C11.1486 4.6333 10.9821 4.51156 10.7207 4.38623C10.4629 4.25732 10.1335 4.14274 9.73242 4.04248C9.33138 3.93864 8.87305 3.85449 8.35742 3.79004C7.84538 3.72201 7.30111 3.68799 6.72461 3.68799C6.66374 3.68799 6.58496 3.69336 6.48828 3.7041C6.39518 3.71126 6.30387 3.73096 6.21436 3.76318C6.12842 3.79183 6.05322 3.83659 5.98877 3.89746C5.92432 3.95475 5.89209 4.03174 5.89209 4.12842C5.89209 4.24658 5.95296 4.34326 6.07471 4.41846C6.19645 4.49365 6.36296 4.55632 6.57422 4.60645C6.78548 4.65658 7.03076 4.69954 7.31006 4.73535C7.58936 4.76758 7.88656 4.8016 8.20166 4.8374C8.51676 4.86963 8.84082 4.90902 9.17383 4.95557C9.50684 4.99854 9.83089 5.05583 10.146 5.12744C10.4611 5.19548 10.7583 5.28141 11.0376 5.38525C11.3169 5.4891 11.5622 5.61979 11.7734 5.77734C11.9847 5.93132 12.1512 6.11751 12.2729 6.33594C12.3947 6.55078 12.4556 6.80322 12.4556 7.09326C12.4556 7.40479 12.3499 7.69124 12.1387 7.95264C11.931 8.21403 11.6392 8.44141 11.2632 8.63477C10.8872 8.82454 10.4414 8.97314 9.92578 9.08057C9.41016 9.18799 8.84619 9.2417 8.23389 9.2417C7.73258 9.2417 7.23665 9.22917 6.74609 9.2041C6.25911 9.17904 5.78288 9.15039 5.31738 9.11816C4.85189 9.08594 4.39893 9.05729 3.9585 9.03223C3.51807 9.00716 3.09733 8.99463 2.69629 8.99463C2.57096 8.99463 2.44027 9 2.3042 9.01074C2.17171 9.02148 2.04281 9.03939 1.91748 9.06445C1.79215 9.08952 1.67399 9.11995 1.56299 9.15576C1.45199 9.19515 1.3571 9.24349 1.27832 9.30078ZM14.8994 4.11768H13.4385V3.61279C13.8538 3.61279 14.2692 3.58952 14.6846 3.54297C15.0999 3.49642 15.4974 3.4266 15.877 3.3335C16.2601 3.23682 16.6182 3.11686 16.9512 2.97363C17.2878 2.82682 17.585 2.65495 17.8428 2.45801C18.1006 2.26107 18.3101 2.03906 18.4712 1.79199C18.6359 1.54134 18.7397 1.26383 18.7827 0.959473H19.9214V3.37646H23.2891V4.11768H19.9214V5.79346C19.9214 6.28402 19.9411 6.70117 19.9805 7.04492C20.0234 7.38509 20.1004 7.6626 20.2114 7.87744C20.326 8.0887 20.4818 8.24268 20.6787 8.33936C20.8757 8.43604 21.1299 8.48438 21.4414 8.48438C21.6885 8.48438 21.9284 8.4611 22.1611 8.41455C22.3939 8.36442 22.5998 8.28206 22.7788 8.16748C22.9578 8.04932 23.1011 7.89355 23.2085 7.7002C23.3195 7.50326 23.375 7.25618 23.375 6.95898H24.0249C24.0249 7.20247 23.9963 7.42806 23.939 7.63574C23.8853 7.84342 23.7886 8.0332 23.6489 8.20508C23.5129 8.37337 23.3302 8.52197 23.1011 8.65088C22.8719 8.77979 22.5819 8.889 22.231 8.97852C21.8836 9.06445 21.4701 9.12891 20.9902 9.17188C20.5104 9.21842 19.9536 9.2417 19.3198 9.2417C18.8937 9.2417 18.4891 9.22738 18.106 9.19873C17.7228 9.17367 17.3665 9.12354 17.0371 9.04834C16.7113 8.97314 16.4159 8.8693 16.1509 8.73682C15.8895 8.60433 15.6657 8.43424 15.4795 8.22656C15.2933 8.0153 15.1501 7.76107 15.0498 7.46387C14.9495 7.16309 14.8994 6.80859 14.8994 6.40039V4.11768ZM24.5137 8.49512C24.9935 8.47721 25.3927 8.41455 25.7114 8.30713C26.0301 8.19971 26.2843 8.05111 26.4741 7.86133C26.6675 7.67155 26.8035 7.44059 26.8823 7.16846C26.9611 6.89632 27.0005 6.5848 27.0005 6.23389C27.0005 5.87581 26.9539 5.56966 26.8608 5.31543C26.7677 5.05762 26.6209 4.84814 26.4204 4.68701C26.2199 4.5223 25.9621 4.40234 25.647 4.32715C25.3354 4.25195 24.9577 4.21436 24.5137 4.21436V3.70947L31.7217 3.22607V4.021C31.9222 3.88135 32.1478 3.75781 32.3984 3.65039C32.6491 3.53939 32.9123 3.44629 33.188 3.37109C33.4637 3.29232 33.7484 3.23324 34.042 3.19385C34.3356 3.15446 34.6257 3.13477 34.9121 3.13477C35.3561 3.13477 35.7393 3.17236 36.0615 3.24756C36.3874 3.32275 36.6559 3.43018 36.8672 3.56982C37.082 3.70589 37.2396 3.87061 37.3398 4.06396C37.4437 4.25374 37.4956 4.46501 37.4956 4.69775C37.4956 4.87321 37.4419 5.04508 37.3345 5.21338C37.2271 5.38167 37.0713 5.53385 36.8672 5.66992C36.6631 5.80241 36.4106 5.90983 36.1099 5.99219C35.8127 6.07454 35.4725 6.11572 35.0894 6.11572C34.742 6.11572 34.4269 6.08887 34.144 6.03516C33.8647 5.98145 33.6248 5.90625 33.4243 5.80957C33.2238 5.70931 33.068 5.59115 32.957 5.45508C32.8496 5.31901 32.7959 5.16862 32.7959 5.00391C32.7959 4.81055 32.8532 4.64404 32.9678 4.50439C33.0859 4.36117 33.2363 4.24479 33.4189 4.15527C33.6051 4.06217 33.811 3.99235 34.0366 3.9458C34.2622 3.89925 34.4842 3.87419 34.7026 3.87061C34.3732 3.87061 34.0724 3.88493 33.8003 3.91357C33.5317 3.94222 33.2793 3.98698 33.043 4.04785C32.8066 4.10514 32.5811 4.18213 32.3662 4.27881C32.1514 4.37191 31.9365 4.4847 31.7217 4.61719V6.18555C31.7217 6.56868 31.7664 6.90169 31.856 7.18457C31.9491 7.46387 32.1012 7.6984 32.3125 7.88818C32.5238 8.07438 32.8031 8.21761 33.1504 8.31787C33.4977 8.41455 33.9292 8.47363 34.4448 8.49512V9H24.5137V8.49512ZM38.3765 7.81299C38.3765 7.49788 38.4731 7.23649 38.6665 7.02881C38.8599 6.82113 39.1159 6.6582 39.4346 6.54004C39.7533 6.41829 40.1167 6.33415 40.5249 6.2876C40.9367 6.23747 41.3592 6.2124 41.7925 6.2124C42.1756 6.2124 42.5516 6.21598 42.9204 6.22314C43.2892 6.23031 43.6366 6.24105 43.9624 6.25537C44.2918 6.26611 44.5908 6.28044 44.8594 6.29834C45.1279 6.31624 45.3535 6.33594 45.5361 6.35742V5.19189C45.5361 4.90544 45.495 4.66374 45.4126 4.4668C45.3338 4.26986 45.2103 4.1123 45.042 3.99414C44.8773 3.8724 44.666 3.78467 44.4082 3.73096C44.1504 3.67725 43.846 3.65039 43.4951 3.65039C43.2409 3.65039 42.9849 3.65397 42.7271 3.66113C42.4728 3.66829 42.2383 3.67904 42.0234 3.69336C42.36 3.69336 42.668 3.71842 42.9473 3.76855C43.2266 3.8151 43.4665 3.88314 43.667 3.97266C43.8675 4.06217 44.0215 4.17139 44.1289 4.30029C44.2399 4.42562 44.2954 4.56706 44.2954 4.72461C44.2954 4.90365 44.231 5.0612 44.1021 5.19727C43.9731 5.32975 43.7959 5.44076 43.5703 5.53027C43.3483 5.61979 43.0851 5.68783 42.7808 5.73438C42.48 5.78092 42.1559 5.8042 41.8086 5.8042C41.4899 5.8042 41.1855 5.77376 40.8955 5.71289C40.609 5.65202 40.3548 5.56966 40.1328 5.46582C39.9108 5.3584 39.7336 5.23307 39.6011 5.08984C39.4722 4.94303 39.4077 4.78548 39.4077 4.61719C39.4077 4.44173 39.4757 4.28239 39.6118 4.13916C39.7515 3.99593 39.9377 3.87061 40.1704 3.76318C40.4067 3.65218 40.6789 3.55729 40.9868 3.47852C41.2983 3.39974 41.626 3.33529 41.9697 3.28516C42.3171 3.23145 42.6715 3.19385 43.0332 3.17236C43.3949 3.1473 43.744 3.13477 44.0806 3.13477C44.5783 3.13477 45.0814 3.14014 45.5898 3.15088C46.0983 3.15804 46.5889 3.18311 47.0615 3.22607C47.5342 3.26904 47.9782 3.33529 48.3936 3.4248C48.8089 3.51432 49.1706 3.63965 49.4785 3.80078C49.7865 3.96191 50.0282 4.16423 50.2036 4.40771C50.3826 4.6512 50.4722 4.9502 50.4722 5.30469V6.58838C50.4722 6.92139 50.4937 7.19173 50.5366 7.39941C50.5832 7.60352 50.6458 7.76286 50.7246 7.87744C50.8034 7.98844 50.8965 8.06364 51.0039 8.10303C51.1113 8.13883 51.2259 8.15674 51.3477 8.15674C51.4587 8.15674 51.5643 8.13525 51.6646 8.09229C51.7648 8.04574 51.8543 7.9777 51.9331 7.88818C52.0119 7.79867 52.0763 7.68766 52.1265 7.55518C52.1766 7.41911 52.2052 7.26335 52.2124 7.08789H52.8193C52.8193 7.41016 52.771 7.68766 52.6743 7.92041C52.5776 8.14958 52.4416 8.34473 52.2661 8.50586C52.0942 8.66699 51.8883 8.7959 51.6484 8.89258C51.4085 8.98568 51.1453 9.05908 50.8589 9.11279C50.576 9.1665 50.2752 9.20052 49.9565 9.21484C49.6379 9.23275 49.312 9.2417 48.979 9.2417C48.5744 9.2417 48.2002 9.23275 47.8564 9.21484C47.5163 9.19694 47.2101 9.15755 46.938 9.09668C46.6659 9.03939 46.4313 8.95524 46.2344 8.84424C46.0374 8.73324 45.8817 8.58464 45.7671 8.39844C45.6167 8.50228 45.4251 8.60433 45.1924 8.70459C44.9632 8.80485 44.675 8.89616 44.3276 8.97852C43.9839 9.05729 43.5721 9.11995 43.0923 9.1665C42.6125 9.21663 42.0503 9.2417 41.4058 9.2417C40.9832 9.2417 40.5876 9.20947 40.2188 9.14502C39.8535 9.08057 39.533 8.98747 39.2573 8.86572C38.9852 8.74398 38.7703 8.59538 38.6128 8.41992C38.4552 8.24089 38.3765 8.03857 38.3765 7.81299ZM43.1299 7.5498C43.1299 7.62142 43.1442 7.6984 43.1729 7.78076C43.2051 7.85954 43.2552 7.93294 43.3232 8.00098C43.3949 8.06901 43.4862 8.1263 43.5972 8.17285C43.7118 8.21582 43.8532 8.2373 44.0215 8.2373C44.1182 8.2373 44.2238 8.23551 44.3384 8.23193C44.4565 8.22835 44.5819 8.2194 44.7144 8.20508C44.8468 8.18717 44.9865 8.16032 45.1333 8.12451C45.2801 8.0887 45.4323 8.03857 45.5898 7.97412C45.554 7.82731 45.5361 7.65186 45.5361 7.44775V6.87305C45.3822 6.86589 45.2264 6.8623 45.0688 6.8623C44.9113 6.85872 44.7591 6.85693 44.6123 6.85693C44.3688 6.85693 44.154 6.86589 43.9678 6.88379C43.7816 6.90169 43.6258 6.9375 43.5005 6.99121C43.3787 7.04134 43.2856 7.11117 43.2212 7.20068C43.1603 7.2902 43.1299 7.40658 43.1299 7.5498ZM56.9121 9C56.8262 8.8138 56.7277 8.59359 56.6167 8.33936C56.5093 8.08154 56.3929 7.80941 56.2676 7.52295C56.1458 7.23291 56.0169 6.93929 55.8809 6.64209C55.7484 6.34131 55.6141 6.05664 55.478 5.78809C55.342 5.51595 55.2077 5.27067 55.0752 5.05225C54.9427 4.83024 54.8174 4.65299 54.6992 4.52051C54.5918 4.40592 54.4665 4.30924 54.3232 4.23047C54.1836 4.14811 54.0404 4.08187 53.8936 4.03174C53.7467 3.97803 53.6017 3.94043 53.4585 3.91895C53.3188 3.89388 53.1953 3.88135 53.0879 3.88135V3.37646H60.9834V3.88135C60.7292 3.88135 60.5269 3.92074 60.3765 3.99951C60.2297 4.07471 60.1562 4.17676 60.1562 4.30566C60.1562 4.3737 60.1742 4.48649 60.21 4.64404C60.2493 4.79801 60.3013 4.98242 60.3657 5.19727C60.4338 5.40853 60.5107 5.64307 60.5967 5.90088C60.6862 6.15511 60.7829 6.4165 60.8867 6.68506C60.9906 6.95003 61.0998 7.21501 61.2144 7.47998C61.3289 7.74495 61.4435 7.99202 61.5581 8.22119C61.6297 8.07438 61.7103 7.89535 61.7998 7.68408C61.8893 7.46924 61.9788 7.24186 62.0684 7.00195C62.1579 6.75846 62.2456 6.5096 62.3315 6.25537C62.4175 6.00114 62.4927 5.75944 62.5571 5.53027C62.6252 5.29753 62.6789 5.08805 62.7183 4.90186C62.7612 4.71208 62.7827 4.5599 62.7827 4.44531C62.7827 4.31999 62.763 4.22152 62.7236 4.1499C62.6878 4.07471 62.6305 4.01742 62.5518 3.97803C62.473 3.93864 62.3745 3.91357 62.2563 3.90283C62.1382 3.88851 61.9967 3.88135 61.832 3.88135V3.37646H69.0723V3.88135C68.7464 3.88135 68.5029 3.9279 68.3418 4.021C68.1842 4.1141 68.1055 4.2251 68.1055 4.354C68.1055 4.41846 68.1234 4.52767 68.1592 4.68164C68.1986 4.83561 68.2523 5.02002 68.3203 5.23486C68.3883 5.44613 68.4671 5.67887 68.5566 5.93311C68.6462 6.18734 68.7446 6.44873 68.8521 6.71729C68.9595 6.98226 69.0705 7.24723 69.1851 7.51221C69.3032 7.7736 69.4214 8.01709 69.5396 8.24268C69.6076 8.11019 69.6882 7.93294 69.7812 7.71094C69.8743 7.48535 69.971 7.24186 70.0713 6.98047C70.1715 6.71549 70.27 6.44336 70.3667 6.16406C70.4634 5.88477 70.5493 5.62516 70.6245 5.38525C70.7033 5.14176 70.766 4.9305 70.8125 4.75146C70.8626 4.56885 70.8877 4.44352 70.8877 4.37549C70.8877 4.3182 70.8752 4.2609 70.8501 4.20361C70.8286 4.14632 70.7839 4.0944 70.7158 4.04785C70.6478 3.99772 70.5493 3.95833 70.4204 3.92969C70.2951 3.89746 70.1286 3.88135 69.9209 3.88135V3.37646H73.5894V3.88135C73.1561 3.88135 72.7891 3.94043 72.4883 4.05859C72.1911 4.17318 71.9691 4.35579 71.8223 4.60645C71.7363 4.75684 71.6379 4.9484 71.5269 5.18115C71.4194 5.4139 71.3066 5.66813 71.1885 5.94385C71.0703 6.21598 70.9521 6.50065 70.834 6.79785C70.7158 7.09147 70.603 7.37614 70.4956 7.65186C70.3882 7.92757 70.2915 8.18359 70.2056 8.41992C70.1196 8.65267 70.0498 8.84603 69.9961 9H64.8936C64.8434 8.88184 64.7843 8.73503 64.7163 8.55957C64.6483 8.38411 64.5749 8.19434 64.4961 7.99023C64.4173 7.78255 64.3332 7.56592 64.2437 7.34033C64.1577 7.11117 64.0682 6.88916 63.9751 6.67432C63.8856 6.45589 63.7961 6.24821 63.7065 6.05127C63.617 5.85433 63.5293 5.68066 63.4434 5.53027C63.3646 5.6735 63.2804 5.8418 63.1909 6.03516C63.1014 6.22493 63.0101 6.42904 62.917 6.64746C62.8239 6.8623 62.7326 7.08252 62.6431 7.30811C62.5535 7.53369 62.4676 7.75212 62.3853 7.96338C62.3065 8.17106 62.2331 8.36621 62.165 8.54883C62.1006 8.72786 62.0469 8.87826 62.0039 9H56.9121ZM74.8838 8.85498C74.9196 8.78337 74.95 8.7028 74.9751 8.61328C75.0002 8.52376 75.0216 8.41455 75.0396 8.28564C75.0575 8.15316 75.0718 7.99919 75.0825 7.82373C75.0968 7.64469 75.1058 7.43164 75.1094 7.18457C75.1165 6.9375 75.1201 6.65283 75.1201 6.33057C75.1237 6.0083 75.1255 5.6377 75.1255 5.21875C75.1255 4.53841 75.0789 3.98698 74.9858 3.56445C74.8927 3.14193 74.7459 2.81429 74.5454 2.58154C74.3449 2.34521 74.0871 2.18587 73.772 2.10352C73.4604 2.02116 73.0827 1.97998 72.6387 1.97998V1.48047L79.8467 0.99707V3.95117C79.9971 3.83659 80.1743 3.73096 80.3784 3.63428C80.5825 3.53402 80.8206 3.44808 81.0928 3.37646C81.3649 3.30127 81.6729 3.24219 82.0166 3.19922C82.3639 3.15625 82.7542 3.13477 83.1875 3.13477C83.8141 3.13477 84.3835 3.2028 84.8955 3.33887C85.4111 3.47493 85.8516 3.67188 86.2168 3.92969C86.582 4.1875 86.8631 4.50081 87.0601 4.86963C87.2606 5.23844 87.3608 5.6556 87.3608 6.12109C87.3608 6.6403 87.2552 7.09505 87.0439 7.48535C86.8327 7.87565 86.5283 8.2015 86.1309 8.46289C85.7334 8.7207 85.2482 8.91406 84.6753 9.04297C84.1024 9.17546 83.4561 9.2417 82.7363 9.2417C82.2279 9.2417 81.7624 9.22201 81.3398 9.18262C80.9173 9.14323 80.5127 9.09847 80.126 9.04834C79.7393 9.00179 79.3561 8.95882 78.9766 8.91943C78.6006 8.88005 78.2031 8.86035 77.7842 8.86035C77.2041 8.86035 76.7153 8.87826 76.3179 8.91406C75.9204 8.94629 75.5928 9.00716 75.335 9.09668L74.8838 8.85498ZM79.8467 8.32861C80.0293 8.40023 80.2137 8.45573 80.3999 8.49512C80.5897 8.53451 80.7866 8.5542 80.9907 8.5542C81.1912 8.5542 81.3577 8.51481 81.4902 8.43604C81.6263 8.35368 81.7337 8.22298 81.8125 8.04395C81.8949 7.86491 81.9521 7.63216 81.9844 7.3457C82.0166 7.05924 82.0327 6.71191 82.0327 6.30371C82.0327 5.9707 82.0184 5.66813 81.9897 5.396C81.9647 5.12386 81.9181 4.8929 81.8501 4.70312C81.7821 4.51335 81.6925 4.36654 81.5815 4.2627C81.4705 4.15885 81.3291 4.10693 81.1572 4.10693C81.0176 4.10693 80.8815 4.12484 80.749 4.16064C80.6201 4.19287 80.4984 4.23942 80.3838 4.30029C80.2728 4.35758 80.1707 4.4292 80.0776 4.51514C79.9881 4.59749 79.9111 4.68701 79.8467 4.78369V8.32861ZM88.5747 6.3252C88.5747 5.96354 88.6517 5.63411 88.8057 5.33691C88.9596 5.03613 89.1763 4.76758 89.4556 4.53125C89.7384 4.29492 90.0804 4.08903 90.4814 3.91357C90.8825 3.73812 91.3283 3.5931 91.8188 3.47852C92.313 3.36393 92.8465 3.27799 93.4194 3.2207C93.9924 3.16341 94.5939 3.13477 95.2241 3.13477C96.0656 3.13477 96.8283 3.19385 97.5122 3.31201C98.1961 3.43018 98.7798 3.61458 99.2632 3.86523C99.7502 4.1123 100.126 4.43099 100.391 4.82129C100.656 5.21159 100.789 5.67887 100.789 6.22314H93.7847C93.8097 6.63851 93.8796 6.98942 93.9941 7.27588C94.1123 7.56234 94.2806 7.79508 94.499 7.97412C94.721 8.14958 94.995 8.27669 95.3208 8.35547C95.6466 8.43066 96.0298 8.46826 96.4702 8.46826C96.7459 8.46826 97.0252 8.45573 97.3081 8.43066C97.5946 8.40202 97.8721 8.36084 98.1406 8.30713C98.4092 8.24984 98.6616 8.1818 98.8979 8.10303C99.1343 8.02067 99.3402 7.92578 99.5156 7.81836C99.6911 7.70736 99.8289 7.58561 99.9292 7.45312C100.033 7.31706 100.085 7.16846 100.085 7.00732H100.789C100.789 7.2723 100.717 7.51042 100.574 7.72168C100.434 7.93294 100.239 8.12272 99.9883 8.29102C99.7376 8.45573 99.4404 8.59896 99.0967 8.7207C98.7565 8.83887 98.3841 8.93555 97.9795 9.01074C97.5785 9.08952 97.1559 9.14681 96.7119 9.18262C96.2679 9.22201 95.8185 9.2417 95.3638 9.2417C94.3361 9.2417 93.4033 9.19157 92.5654 9.09131C91.7311 8.99105 91.0186 8.82633 90.4277 8.59717C89.8369 8.368 89.3804 8.06901 89.0581 7.7002C88.7358 7.3278 88.5747 6.86947 88.5747 6.3252ZM95.9546 5.62158C95.9546 5.29574 95.9277 5.01823 95.874 4.78906C95.8239 4.55632 95.7541 4.36654 95.6646 4.21973C95.5786 4.07292 95.4748 3.96549 95.353 3.89746C95.2313 3.82585 95.1006 3.79004 94.9609 3.79004C94.807 3.79004 94.6602 3.82585 94.5205 3.89746C94.3844 3.96549 94.2627 4.07471 94.1553 4.2251C94.0514 4.37191 93.9655 4.56169 93.8975 4.79443C93.833 5.0236 93.7936 5.29932 93.7793 5.62158H95.9546ZM101.857 8.49512C102.337 8.47721 102.736 8.41455 103.055 8.30713C103.374 8.19971 103.628 8.05111 103.818 7.86133C104.011 7.67155 104.147 7.44059 104.226 7.16846C104.305 6.89632 104.344 6.5848 104.344 6.23389C104.344 5.87581 104.298 5.56966 104.205 5.31543C104.111 5.05762 103.965 4.84814 103.764 4.68701C103.564 4.5223 103.306 4.40234 102.991 4.32715C102.679 4.25195 102.301 4.21436 101.857 4.21436V3.70947L109.065 3.22607V4.021C109.266 3.88135 109.492 3.75781 109.742 3.65039C109.993 3.53939 110.256 3.44629 110.532 3.37109C110.807 3.29232 111.092 3.23324 111.386 3.19385C111.679 3.15446 111.969 3.13477 112.256 3.13477C112.7 3.13477 113.083 3.17236 113.405 3.24756C113.731 3.32275 114 3.43018 114.211 3.56982C114.426 3.70589 114.583 3.87061 114.684 4.06396C114.787 4.25374 114.839 4.46501 114.839 4.69775C114.839 4.87321 114.786 5.04508 114.678 5.21338C114.571 5.38167 114.415 5.53385 114.211 5.66992C114.007 5.80241 113.754 5.90983 113.454 5.99219C113.156 6.07454 112.816 6.11572 112.433 6.11572C112.086 6.11572 111.771 6.08887 111.488 6.03516C111.208 5.98145 110.969 5.90625 110.768 5.80957C110.568 5.70931 110.412 5.59115 110.301 5.45508C110.193 5.31901 110.14 5.16862 110.14 5.00391C110.14 4.81055 110.197 4.64404 110.312 4.50439C110.43 4.36117 110.58 4.24479 110.763 4.15527C110.949 4.06217 111.155 3.99235 111.38 3.9458C111.606 3.89925 111.828 3.87419 112.046 3.87061C111.717 3.87061 111.416 3.88493 111.144 3.91357C110.875 3.94222 110.623 3.98698 110.387 4.04785C110.15 4.10514 109.925 4.18213 109.71 4.27881C109.495 4.37191 109.28 4.4847 109.065 4.61719V6.18555C109.065 6.56868 109.11 6.90169 109.2 7.18457C109.293 7.46387 109.445 7.6984 109.656 7.88818C109.868 8.07438 110.147 8.21761 110.494 8.31787C110.841 8.41455 111.273 8.47363 111.789 8.49512V9H101.857V8.49512ZM115.425 8.49512C115.905 8.47721 116.304 8.41455 116.623 8.30713C116.941 8.19971 117.195 8.05111 117.385 7.86133C117.579 7.67155 117.715 7.44059 117.793 7.16846C117.872 6.89632 117.912 6.5848 117.912 6.23389C117.912 5.87581 117.865 5.56966 117.772 5.31543C117.679 5.05762 117.532 4.84814 117.332 4.68701C117.131 4.5223 116.873 4.40234 116.558 4.32715C116.247 4.25195 115.869 4.21436 115.425 4.21436V3.70947L122.633 3.22607V4.021C122.833 3.88135 123.059 3.75781 123.31 3.65039C123.56 3.53939 123.823 3.44629 124.099 3.37109C124.375 3.29232 124.66 3.23324 124.953 3.19385C125.247 3.15446 125.537 3.13477 125.823 3.13477C126.267 3.13477 126.65 3.17236 126.973 3.24756C127.299 3.32275 127.567 3.43018 127.778 3.56982C127.993 3.70589 128.151 3.87061 128.251 4.06396C128.355 4.25374 128.407 4.46501 128.407 4.69775C128.407 4.87321 128.353 5.04508 128.246 5.21338C128.138 5.38167 127.982 5.53385 127.778 5.66992C127.574 5.80241 127.322 5.90983 127.021 5.99219C126.724 6.07454 126.384 6.11572 126 6.11572C125.653 6.11572 125.338 6.08887 125.055 6.03516C124.776 5.98145 124.536 5.90625 124.335 5.80957C124.135 5.70931 123.979 5.59115 123.868 5.45508C123.761 5.31901 123.707 5.16862 123.707 5.00391C123.707 4.81055 123.764 4.64404 123.879 4.50439C123.997 4.36117 124.147 4.24479 124.33 4.15527C124.516 4.06217 124.722 3.99235 124.948 3.9458C125.173 3.89925 125.395 3.87419 125.614 3.87061C125.284 3.87061 124.984 3.88493 124.711 3.91357C124.443 3.94222 124.19 3.98698 123.954 4.04785C123.718 4.10514 123.492 4.18213 123.277 4.27881C123.062 4.37191 122.848 4.4847 122.633 4.61719V6.18555C122.633 6.56868 122.678 6.90169 122.767 7.18457C122.86 7.46387 123.012 7.6984 123.224 7.88818C123.435 8.07438 123.714 8.21761 124.062 8.31787C124.409 8.41455 124.84 8.47363 125.356 8.49512V9H115.425V8.49512ZM128.493 10.4126C128.493 10.23 128.552 10.0635 128.67 9.91309C128.788 9.7627 128.956 9.632 129.175 9.521C129.393 9.41357 129.656 9.32943 129.964 9.26855C130.276 9.20768 130.623 9.17725 131.006 9.17725C131.354 9.17725 131.672 9.2041 131.962 9.25781C132.252 9.31152 132.503 9.38672 132.714 9.4834C132.926 9.58008 133.09 9.69466 133.208 9.82715C133.327 9.95964 133.386 10.1029 133.386 10.2568C133.386 10.3893 133.339 10.5146 133.246 10.6328C133.157 10.751 133.021 10.853 132.838 10.939C132.659 11.0285 132.435 11.0983 132.167 11.1484C131.898 11.1986 131.585 11.2236 131.227 11.2236C131.334 11.2415 131.468 11.2594 131.629 11.2773C131.794 11.2988 131.962 11.3167 132.134 11.3311C132.31 11.3454 132.482 11.3561 132.65 11.3633C132.818 11.374 132.963 11.3794 133.085 11.3794C133.518 11.3794 133.935 11.349 134.336 11.2881C134.741 11.2272 135.128 11.1234 135.497 10.9766C135.869 10.8333 136.223 10.6382 136.56 10.3911C136.897 10.1476 137.215 9.84326 137.516 9.47803H133.423C133.112 8.88363 132.807 8.33219 132.51 7.82373C132.213 7.31169 131.928 6.84798 131.656 6.43262C131.388 6.01725 131.133 5.65381 130.894 5.34229C130.654 5.02718 130.433 4.76758 130.233 4.56348C130.065 4.39518 129.911 4.26449 129.771 4.17139C129.635 4.07829 129.502 4.01025 129.374 3.96729C129.245 3.92432 129.114 3.89925 128.981 3.89209C128.853 3.88493 128.713 3.88135 128.562 3.88135V3.37646H137.511V3.88135C137.382 3.88135 137.233 3.88851 137.065 3.90283C136.9 3.91357 136.743 3.93685 136.592 3.97266C136.442 4.00846 136.315 4.0568 136.211 4.11768C136.107 4.17855 136.055 4.25911 136.055 4.35938C136.055 4.43099 136.089 4.54736 136.157 4.7085C136.225 4.86963 136.317 5.0612 136.431 5.2832C136.546 5.50163 136.676 5.74333 136.823 6.0083C136.97 6.27327 137.122 6.54541 137.28 6.82471C137.437 7.10042 137.593 7.37614 137.747 7.65186C137.905 7.92757 138.05 8.18538 138.182 8.42529C138.275 8.257 138.384 8.05827 138.51 7.8291C138.635 7.59635 138.764 7.35107 138.896 7.09326C139.029 6.83545 139.16 6.57406 139.289 6.30908C139.417 6.04411 139.532 5.79346 139.632 5.55713C139.736 5.31722 139.819 5.10238 139.879 4.9126C139.944 4.72282 139.976 4.57422 139.976 4.4668C139.976 4.34505 139.937 4.24658 139.858 4.17139C139.783 4.09261 139.681 4.03174 139.552 3.98877C139.423 3.9458 139.276 3.91715 139.111 3.90283C138.947 3.88851 138.777 3.88135 138.601 3.88135V3.37646H142.699V3.88135C142.488 3.88135 142.302 3.89209 142.141 3.91357C141.983 3.93506 141.84 3.97445 141.711 4.03174C141.586 4.08903 141.467 4.16602 141.356 4.2627C141.245 4.35938 141.133 4.48291 141.018 4.6333C140.8 4.91618 140.604 5.22233 140.433 5.55176C140.261 5.8776 140.087 6.22314 139.912 6.58838C139.736 6.95361 139.55 7.33854 139.353 7.74316C139.156 8.14421 138.925 8.56315 138.66 9C138.313 9.55859 137.933 10.0259 137.521 10.4019C137.11 10.7778 136.673 11.0786 136.211 11.3042C135.753 11.5334 135.275 11.6945 134.777 11.7876C134.283 11.8843 133.778 11.9326 133.262 11.9326C132.607 11.9326 131.989 11.9004 131.409 11.8359C130.833 11.7715 130.328 11.6748 129.895 11.5459C129.461 11.4206 129.119 11.263 128.869 11.0732C128.618 10.8835 128.493 10.6632 128.493 10.4126ZM143.317 7.81299C143.317 7.49788 143.414 7.23649 143.607 7.02881C143.8 6.82113 144.056 6.6582 144.375 6.54004C144.694 6.41829 145.057 6.33415 145.465 6.2876C145.877 6.23747 146.3 6.2124 146.733 6.2124C147.116 6.2124 147.492 6.21598 147.861 6.22314C148.23 6.23031 148.577 6.24105 148.903 6.25537C149.232 6.26611 149.531 6.28044 149.8 6.29834C150.068 6.31624 150.294 6.33594 150.477 6.35742V5.19189C150.477 4.90544 150.435 4.66374 150.353 4.4668C150.274 4.26986 150.151 4.1123 149.982 3.99414C149.818 3.8724 149.606 3.78467 149.349 3.73096C149.091 3.67725 148.786 3.65039 148.436 3.65039C148.181 3.65039 147.925 3.65397 147.667 3.66113C147.413 3.66829 147.179 3.67904 146.964 3.69336C147.3 3.69336 147.608 3.71842 147.888 3.76855C148.167 3.8151 148.407 3.88314 148.607 3.97266C148.808 4.06217 148.962 4.17139 149.069 4.30029C149.18 4.42562 149.236 4.56706 149.236 4.72461C149.236 4.90365 149.171 5.0612 149.042 5.19727C148.914 5.32975 148.736 5.44076 148.511 5.53027C148.289 5.61979 148.026 5.68783 147.721 5.73438C147.42 5.78092 147.096 5.8042 146.749 5.8042C146.43 5.8042 146.126 5.77376 145.836 5.71289C145.549 5.65202 145.295 5.56966 145.073 5.46582C144.851 5.3584 144.674 5.23307 144.542 5.08984C144.413 4.94303 144.348 4.78548 144.348 4.61719C144.348 4.44173 144.416 4.28239 144.552 4.13916C144.692 3.99593 144.878 3.87061 145.111 3.76318C145.347 3.65218 145.619 3.55729 145.927 3.47852C146.239 3.39974 146.566 3.33529 146.91 3.28516C147.257 3.23145 147.612 3.19385 147.974 3.17236C148.335 3.1473 148.684 3.13477 149.021 3.13477C149.519 3.13477 150.022 3.14014 150.53 3.15088C151.039 3.15804 151.529 3.18311 152.002 3.22607C152.475 3.26904 152.919 3.33529 153.334 3.4248C153.749 3.51432 154.111 3.63965 154.419 3.80078C154.727 3.96191 154.969 4.16423 155.144 4.40771C155.323 4.6512 155.413 4.9502 155.413 5.30469V6.58838C155.413 6.92139 155.434 7.19173 155.477 7.39941C155.524 7.60352 155.586 7.76286 155.665 7.87744C155.744 7.98844 155.837 8.06364 155.944 8.10303C156.052 8.13883 156.166 8.15674 156.288 8.15674C156.399 8.15674 156.505 8.13525 156.605 8.09229C156.705 8.04574 156.795 7.9777 156.874 7.88818C156.952 7.79867 157.017 7.68766 157.067 7.55518C157.117 7.41911 157.146 7.26335 157.153 7.08789H157.76C157.76 7.41016 157.711 7.68766 157.615 7.92041C157.518 8.14958 157.382 8.34473 157.207 8.50586C157.035 8.66699 156.829 8.7959 156.589 8.89258C156.349 8.98568 156.086 9.05908 155.799 9.11279C155.516 9.1665 155.216 9.20052 154.897 9.21484C154.578 9.23275 154.252 9.2417 153.919 9.2417C153.515 9.2417 153.141 9.23275 152.797 9.21484C152.457 9.19694 152.151 9.15755 151.878 9.09668C151.606 9.03939 151.372 8.95524 151.175 8.84424C150.978 8.73324 150.822 8.58464 150.708 8.39844C150.557 8.50228 150.366 8.60433 150.133 8.70459C149.904 8.80485 149.615 8.89616 149.268 8.97852C148.924 9.05729 148.513 9.11995 148.033 9.1665C147.553 9.21663 146.991 9.2417 146.346 9.2417C145.924 9.2417 145.528 9.20947 145.159 9.14502C144.794 9.08057 144.473 8.98747 144.198 8.86572C143.926 8.74398 143.711 8.59538 143.553 8.41992C143.396 8.24089 143.317 8.03857 143.317 7.81299ZM148.07 7.5498C148.07 7.62142 148.085 7.6984 148.113 7.78076C148.146 7.85954 148.196 7.93294 148.264 8.00098C148.335 8.06901 148.427 8.1263 148.538 8.17285C148.652 8.21582 148.794 8.2373 148.962 8.2373C149.059 8.2373 149.164 8.23551 149.279 8.23193C149.397 8.22835 149.522 8.2194 149.655 8.20508C149.787 8.18717 149.927 8.16032 150.074 8.12451C150.221 8.0887 150.373 8.03857 150.53 7.97412C150.494 7.82731 150.477 7.65186 150.477 7.44775V6.87305C150.323 6.86589 150.167 6.8623 150.009 6.8623C149.852 6.85872 149.7 6.85693 149.553 6.85693C149.309 6.85693 149.094 6.86589 148.908 6.88379C148.722 6.90169 148.566 6.9375 148.441 6.99121C148.319 7.04134 148.226 7.11117 148.162 7.20068C148.101 7.2902 148.07 7.40658 148.07 7.5498ZM158.377 8.49512C158.528 8.49512 158.678 8.47184 158.829 8.42529C158.979 8.37874 159.128 8.31608 159.274 8.2373C159.425 8.15853 159.573 8.06722 159.72 7.96338C159.871 7.85596 160.019 7.74316 160.166 7.625C160.589 7.28841 160.968 6.98226 161.305 6.70654C161.645 6.42725 161.951 6.16585 162.223 5.92236C161.969 5.67529 161.702 5.4318 161.423 5.19189C161.144 4.95199 160.862 4.72819 160.58 4.52051C160.494 4.45964 160.39 4.40234 160.268 4.34863C160.146 4.29134 160.016 4.23942 159.876 4.19287C159.74 4.14274 159.597 4.09977 159.446 4.06396C159.299 4.02458 159.158 3.99235 159.022 3.96729C158.889 3.93864 158.766 3.91715 158.651 3.90283C158.54 3.88851 158.449 3.88135 158.377 3.88135V3.37646H167.97V3.88135C167.841 3.88135 167.723 3.88851 167.616 3.90283C167.508 3.91357 167.415 3.93685 167.336 3.97266C167.261 4.00846 167.202 4.0568 167.159 4.11768C167.116 4.17855 167.095 4.25732 167.095 4.354C167.095 4.39339 167.12 4.45964 167.17 4.55273C167.224 4.64225 167.299 4.74967 167.396 4.875C167.492 5.00033 167.607 5.14176 167.739 5.29932C167.872 5.45687 168.019 5.62337 168.18 5.79883C168.373 5.66634 168.565 5.53385 168.754 5.40137C168.944 5.2653 169.114 5.1346 169.265 5.00928C169.419 4.88395 169.542 4.76758 169.635 4.66016C169.732 4.55273 169.78 4.45785 169.78 4.37549C169.78 4.3182 169.766 4.2609 169.737 4.20361C169.712 4.14632 169.669 4.0944 169.608 4.04785C169.548 3.99772 169.467 3.95833 169.367 3.92969C169.27 3.89746 169.15 3.88135 169.007 3.88135V3.37646H172.638V3.88135C172.512 3.88135 172.376 3.89746 172.229 3.92969C172.086 3.96191 171.938 4.00846 171.784 4.06934C171.63 4.13021 171.474 4.2054 171.316 4.29492C171.159 4.38444 171.007 4.48828 170.86 4.60645C170.459 4.92513 170.074 5.22949 169.705 5.51953C169.336 5.80599 169 6.07633 168.695 6.33057C168.967 6.59912 169.256 6.86589 169.56 7.13086C169.864 7.39583 170.172 7.63932 170.484 7.86133C170.609 7.95085 170.77 8.03499 170.967 8.11377C171.168 8.18896 171.372 8.25521 171.58 8.3125C171.787 8.36979 171.984 8.41455 172.17 8.44678C172.36 8.479 172.509 8.49512 172.616 8.49512V9H163.093V8.49512C163.222 8.49512 163.34 8.48975 163.448 8.479C163.555 8.46468 163.646 8.43962 163.722 8.40381C163.8 8.368 163.861 8.31966 163.904 8.25879C163.947 8.19792 163.969 8.11914 163.969 8.02246C163.969 7.97949 163.938 7.90788 163.877 7.80762C163.817 7.70736 163.732 7.5874 163.625 7.44775C163.518 7.30811 163.389 7.15234 163.238 6.98047C163.088 6.80859 162.921 6.62777 162.739 6.43799C162.545 6.57048 162.35 6.71191 162.153 6.8623C161.96 7.00911 161.785 7.15413 161.627 7.29736C161.473 7.43701 161.346 7.5695 161.246 7.69482C161.149 7.81657 161.101 7.92041 161.101 8.00635C161.101 8.06006 161.113 8.11735 161.138 8.17822C161.167 8.23551 161.212 8.28743 161.272 8.33398C161.333 8.38053 161.412 8.41992 161.509 8.45215C161.609 8.48079 161.731 8.49512 161.874 8.49512V9H158.377V8.49512ZM173.309 6.3252C173.309 5.96354 173.386 5.63411 173.54 5.33691C173.694 5.03613 173.911 4.76758 174.19 4.53125C174.473 4.29492 174.815 4.08903 175.216 3.91357C175.617 3.73812 176.063 3.5931 176.553 3.47852C177.047 3.36393 177.581 3.27799 178.154 3.2207C178.727 3.16341 179.328 3.13477 179.958 3.13477C180.8 3.13477 181.563 3.19385 182.247 3.31201C182.931 3.43018 183.514 3.61458 183.998 3.86523C184.485 4.1123 184.861 4.43099 185.125 4.82129C185.39 5.21159 185.523 5.67887 185.523 6.22314H178.519C178.544 6.63851 178.614 6.98942 178.729 7.27588C178.847 7.56234 179.015 7.79508 179.233 7.97412C179.455 8.14958 179.729 8.27669 180.055 8.35547C180.381 8.43066 180.764 8.46826 181.205 8.46826C181.48 8.46826 181.76 8.45573 182.042 8.43066C182.329 8.40202 182.606 8.36084 182.875 8.30713C183.144 8.24984 183.396 8.1818 183.632 8.10303C183.869 8.02067 184.075 7.92578 184.25 7.81836C184.425 7.70736 184.563 7.58561 184.664 7.45312C184.767 7.31706 184.819 7.16846 184.819 7.00732H185.523C185.523 7.2723 185.451 7.51042 185.308 7.72168C185.168 7.93294 184.973 8.12272 184.723 8.29102C184.472 8.45573 184.175 8.59896 183.831 8.7207C183.491 8.83887 183.118 8.93555 182.714 9.01074C182.313 9.08952 181.89 9.14681 181.446 9.18262C181.002 9.22201 180.553 9.2417 180.098 9.2417C179.07 9.2417 178.138 9.19157 177.3 9.09131C176.465 8.99105 175.753 8.82633 175.162 8.59717C174.571 8.368 174.115 8.06901 173.792 7.7002C173.47 7.3278 173.309 6.86947 173.309 6.3252ZM180.689 5.62158C180.689 5.29574 180.662 5.01823 180.608 4.78906C180.558 4.55632 180.488 4.36654 180.399 4.21973C180.313 4.07292 180.209 3.96549 180.087 3.89746C179.966 3.82585 179.835 3.79004 179.695 3.79004C179.541 3.79004 179.395 3.82585 179.255 3.89746C179.119 3.96549 178.997 4.07471 178.89 4.2251C178.786 4.37191 178.7 4.56169 178.632 4.79443C178.567 5.0236 178.528 5.29932 178.514 5.62158H180.689Z" fill="white"/>
</svg>
