<svg width="48" height="47" viewBox="0 0 48 47" fill="none" xmlns="http://www.w3.org/2000/svg">
<path d="M12.179 4.00222C11.9804 3.01267 13.2062 2.38549 13.8926 3.12544L21.1515 10.951C21.6126 11.4482 22.4243 11.352 22.7565 10.7608L28.1672 1.13143C28.6679 0.240329 30.0251 0.585747 30.0389 1.60779L30.1806 12.1099C30.1902 12.8162 30.9092 13.2903 31.5622 13.0207L41.7233 8.82579C42.6828 8.42966 43.5359 9.57714 42.8801 10.3818L36.0527 18.7598C35.6004 19.3149 35.8609 20.1516 36.5484 20.3517L46.741 23.3185C47.7318 23.6069 47.6896 25.0248 46.6833 25.2538L35.8716 27.7133C35.1974 27.8667 34.8786 28.6416 35.2497 29.2251L40.8975 38.1056C41.4412 38.9604 40.5153 39.9887 39.6083 39.5376L29.8658 34.691C29.2635 34.3914 28.5431 34.76 28.4337 35.4238L26.6644 46.1604C26.4997 47.16 25.124 47.3092 24.7488 46.3682L20.851 36.5923C20.5949 35.95 19.7799 35.7552 19.2611 36.2123L10.9411 43.5416C10.1667 44.2237 8.99206 43.4285 9.33784 42.4562L12.8948 32.4543C13.1348 31.7796 12.6086 31.0788 11.8938 31.1209L1.10496 31.7565C0.0686927 31.8175 -0.362837 30.4543 0.519778 29.9079L9.86658 24.1215C10.4672 23.7496 10.5034 22.8891 9.93614 22.4682L1.50187 16.209C0.681063 15.5999 1.19496 14.2971 2.21058 14.4123L13.1855 15.6579C13.8592 15.7344 14.4121 15.1324 14.2787 14.4676L12.179 4.00222Z" fill="white"/>
<path d="M39 24C39 32.8365 31.8366 40 23 40C14.1635 40 7.00001 32.8365 7.00001 24C7.00001 15.1634 14.1635 7.99999 23 7.99999C31.8366 7.99999 39 15.1634 39 24Z" fill="white"/>
</svg>
